solid Exported from Blender-2.80 (sub 75)
facet normal 1.000000 0.000000 0.000000
outer loop
vertex -0.900000 -0.900000 1.000000
vertex -0.900000 -0.900000 0.900000
vertex -0.900000 0.900000 0.900000
endloop
endfacet
facet normal 1.000000 0.000000 0.000000
outer loop
vertex -0.900000 -0.900000 1.000000
vertex -0.900000 0.900000 0.900000
vertex -0.900000 1.000000 1.000000
endloop
endfacet
facet normal -1.000000 0.000000 0.000000
outer loop
vertex -1.000000 1.000000 -1.000000
vertex -1.000000 -1.000000 -1.000000
vertex -1.000000 -1.000000 1.000000
endloop
endfacet
facet normal -1.000000 0.000000 0.000000
outer loop
vertex -1.000000 -1.000000 1.000000
vertex -1.000000 1.000000 1.000000
vertex -1.000000 1.000000 -0.986669
endloop
endfacet
facet normal -1.000000 0.000000 0.000000
outer loop
vertex -1.000000 -1.000000 1.000000
vertex -1.000000 1.000000 -0.986669
vertex -1.000000 1.000000 -1.000000
endloop
endfacet
facet normal 1.000000 0.000000 0.000000
outer loop
vertex 1.000000 1.000000 -1.000000
vertex 1.000000 1.000000 -0.900000
vertex 1.000000 -0.900000 -0.900000
endloop
endfacet
facet normal 1.000000 0.000000 0.000000
outer loop
vertex 1.000000 1.000000 -1.000000
vertex 1.000000 -0.900000 -0.900000
vertex 1.000000 -1.000000 -1.000000
endloop
endfacet
facet normal 0.000000 -1.000000 0.000000
outer loop
vertex -1.000000 -1.000000 -1.000000
vertex 1.000000 -1.000000 -1.000000
vertex 1.000000 -1.000000 1.000000
endloop
endfacet
facet normal 0.000000 -1.000000 0.000000
outer loop
vertex -1.000000 -1.000000 -1.000000
vertex 1.000000 -1.000000 1.000000
vertex -1.000000 -1.000000 1.000000
endloop
endfacet
facet normal 0.000000 0.000000 1.000000
outer loop
vertex -0.900000 -0.900000 1.000000
vertex -0.900000 1.000000 1.000000
vertex -1.000000 1.000000 1.000000
endloop
endfacet
facet normal 0.000000 0.000000 1.000000
outer loop
vertex -0.900000 -0.900000 1.000000
vertex -1.000000 1.000000 1.000000
vertex -1.000000 -1.000000 1.000000
endloop
endfacet
facet normal 0.000000 1.000000 0.000000
outer loop
vertex -1.000000 1.000000 1.000000
vertex -0.900000 1.000000 1.000000
vertex -0.900000 1.000000 -0.900000
endloop
endfacet
facet normal 0.000000 1.000000 0.000000
outer loop
vertex -1.000000 1.000000 1.000000
vertex -0.900000 1.000000 -0.900000
vertex -1.000000 1.000000 -0.986669
endloop
endfacet
facet normal 0.000000 0.000000 -1.000000
outer loop
vertex -1.000000 -1.000000 -1.000000
vertex -1.000000 1.000000 -1.000000
vertex 1.000000 1.000000 -1.000000
endloop
endfacet
facet normal 0.000000 0.000000 -1.000000
outer loop
vertex -1.000000 -1.000000 -1.000000
vertex 1.000000 1.000000 -1.000000
vertex 1.000000 -1.000000 -1.000000
endloop
endfacet
facet normal 0.000000 0.000000 1.000000
outer loop
vertex 0.900000 -0.900000 -0.900000
vertex 1.000000 -0.900000 -0.900000
vertex 1.000000 1.000000 -0.900000
endloop
endfacet
facet normal 0.000000 0.000000 1.000000
outer loop
vertex 0.900000 -0.900000 -0.900000
vertex 1.000000 1.000000 -0.900000
vertex 0.900000 0.900000 -0.900000
endloop
endfacet
facet normal 0.000000 1.000000 0.000000
outer loop
vertex -0.900000 -0.900000 0.900000
vertex -0.900000 -0.900000 1.000000
vertex 1.000000 -0.900000 1.000000
endloop
endfacet
facet normal 0.000000 1.000000 0.000000
outer loop
vertex -0.900000 -0.900000 0.900000
vertex 1.000000 -0.900000 1.000000
vertex 0.900000 -0.900000 0.900000
endloop
endfacet
facet normal 0.000000 1.000000 0.000000
outer loop
vertex 0.800000 0.900000 -0.800000
vertex 0.900000 0.900000 -0.900000
vertex -0.900000 0.900000 -0.900000
endloop
endfacet
facet normal 0.000000 1.000000 0.000000
outer loop
vertex 0.800000 0.900000 -0.800000
vertex -0.900000 0.900000 -0.900000
vertex -0.800000 0.900000 -0.800000
endloop
endfacet
facet normal 0.000000 1.000000 0.000000
outer loop
vertex -0.800000 0.900000 -0.800000
vertex -0.900000 0.900000 -0.900000
vertex -0.900000 0.900000 0.900000
endloop
endfacet
facet normal 0.000000 1.000000 0.000000
outer loop
vertex -0.800000 0.900000 -0.800000
vertex -0.900000 0.900000 0.900000
vertex -0.800000 0.900000 0.800000
endloop
endfacet
facet normal 0.000000 0.000000 1.000000
outer loop
vertex 0.800000 0.800000 0.900000
vertex 0.900000 0.900000 0.900000
vertex -0.900000 0.900000 0.900000
endloop
endfacet
facet normal 0.000000 0.000000 1.000000
outer loop
vertex 0.800000 0.800000 0.900000
vertex -0.900000 0.900000 0.900000
vertex -0.800000 0.800000 0.900000
endloop
endfacet
facet normal 0.000000 1.000000 0.000000
outer loop
vertex -0.800000 0.900000 0.800000
vertex -0.900000 0.900000 0.900000
vertex 0.900000 0.900000 0.900000
endloop
endfacet
facet normal 0.000000 1.000000 -0.000000
outer loop
vertex -0.800000 0.900000 0.800000
vertex 0.900000 0.900000 0.900000
vertex 0.800000 0.900000 0.800000
endloop
endfacet
facet normal 0.000000 1.000000 0.000000
outer loop
vertex 0.800000 0.900000 -0.160000
vertex 0.800000 0.900000 -0.480000
vertex -0.480000 0.900000 -0.480000
endloop
endfacet
facet normal 0.000000 1.000000 -0.000000
outer loop
vertex -0.480000 0.900000 0.480000
vertex 0.480000 0.900000 0.480000
vertex 0.480000 0.900000 0.160000
endloop
endfacet
facet normal 0.000000 1.000000 0.000000
outer loop
vertex -0.480000 0.900000 0.480000
vertex 0.480000 0.900000 0.160000
vertex -0.160000 0.900000 0.160000
endloop
endfacet
facet normal 0.000000 1.000000 0.000001
outer loop
vertex -0.160000 0.900000 -0.160000
vertex 0.800000 0.900000 -0.160000
vertex -0.480000 0.900000 -0.480000
endloop
endfacet
facet normal 0.000000 1.000000 0.000000
outer loop
vertex -0.480000 0.900000 0.480000
vertex -0.160000 0.900000 0.160000
vertex -0.160000 0.900000 -0.160000
endloop
endfacet
facet normal 0.000000 1.000000 0.000000
outer loop
vertex -0.480000 0.900000 -0.480000
vertex -0.480000 0.900000 0.480000
vertex -0.160000 0.900000 -0.160000
endloop
endfacet
facet normal 0.000000 0.000000 1.000000
outer loop
vertex -0.800000 0.800000 0.900000
vertex -0.900000 0.900000 0.900000
vertex -0.900000 -0.900000 0.900000
endloop
endfacet
facet normal 0.000000 0.000000 1.000000
outer loop
vertex -0.800000 0.800000 0.900000
vertex -0.900000 -0.900000 0.900000
vertex -0.800000 -0.800000 0.900000
endloop
endfacet
facet normal -0.000000 0.000000 1.000000
outer loop
vertex 0.800000 0.160000 0.900000
vertex 0.800000 -0.800000 0.900000
vertex 0.900000 -0.900000 0.900000
endloop
endfacet
facet normal -0.000000 0.000000 1.000000
outer loop
vertex 0.900000 -0.900000 0.900000
vertex 0.900000 0.900000 0.900000
vertex 0.800000 0.800000 0.900000
endloop
endfacet
facet normal 0.000004 0.000000 1.000000
outer loop
vertex 0.800000 0.480000 0.900000
vertex 0.800000 0.160000 0.900000
vertex 0.900000 -0.900000 0.900000
endloop
endfacet
facet normal 0.000000 0.000000 1.000000
outer loop
vertex 0.900000 -0.900000 0.900000
vertex 0.800000 0.800000 0.900000
vertex 0.800000 0.480000 0.900000
endloop
endfacet
facet normal 0.000000 0.000000 1.000000
outer loop
vertex -0.800000 -0.800000 0.900000
vertex -0.900000 -0.900000 0.900000
vertex 0.900000 -0.900000 0.900000
endloop
endfacet
facet normal 0.000000 0.000000 1.000000
outer loop
vertex -0.800000 -0.800000 0.900000
vertex 0.900000 -0.900000 0.900000
vertex 0.800000 -0.800000 0.900000
endloop
endfacet
facet normal 0.000000 0.000000 1.000000
outer loop
vertex -0.480000 -0.480000 0.900000
vertex 0.480000 -0.480000 0.900000
vertex 0.480000 -0.160000 0.900000
endloop
endfacet
facet normal 0.000000 0.000000 1.000000
outer loop
vertex -0.480000 -0.480000 0.900000
vertex 0.480000 -0.160000 0.900000
vertex -0.160000 -0.160000 0.900000
endloop
endfacet
facet normal 0.000000 0.000000 1.000000
outer loop
vertex 0.800000 0.160000 0.900000
vertex 0.800000 0.480000 0.900000
vertex -0.480000 0.480000 0.900000
endloop
endfacet
facet normal 0.000001 0.000000 1.000000
outer loop
vertex -0.480000 -0.480000 0.900000
vertex -0.160000 -0.160000 0.900000
vertex -0.160000 0.160000 0.900000
endloop
endfacet
facet normal 0.000000 0.000000 1.000000
outer loop
vertex -0.160000 0.160000 0.900000
vertex 0.800000 0.160000 0.900000
vertex -0.480000 0.480000 0.900000
endloop
endfacet
facet normal -0.000000 0.000000 1.000000
outer loop
vertex -0.160000 0.160000 0.900000
vertex -0.480000 0.480000 0.900000
vertex -0.480000 -0.480000 0.900000
endloop
endfacet
facet normal 0.000000 1.000000 0.000000
outer loop
vertex 0.800000 0.900000 -0.160000
vertex 0.800000 0.900000 0.800000
vertex 0.900000 0.900000 0.900000
endloop
endfacet
facet normal 0.000000 1.000000 0.000000
outer loop
vertex 0.900000 0.900000 0.900000
vertex 0.900000 0.900000 -0.900000
vertex 0.800000 0.900000 -0.800000
endloop
endfacet
facet normal 0.000000 1.000000 0.000000
outer loop
vertex 0.800000 0.900000 -0.480000
vertex 0.800000 0.900000 -0.160000
vertex 0.900000 0.900000 0.900000
endloop
endfacet
facet normal 0.000000 1.000000 0.000000
outer loop
vertex 0.900000 0.900000 0.900000
vertex 0.800000 0.900000 -0.800000
vertex 0.800000 0.900000 -0.480000
endloop
endfacet
facet normal 1.000000 0.000000 0.000000
outer loop
vertex 0.900000 0.800000 0.800000
vertex 0.900000 0.900000 0.900000
vertex 0.900000 -0.900000 0.900000
endloop
endfacet
facet normal 1.000000 0.000000 0.000000
outer loop
vertex 0.900000 0.800000 0.800000
vertex 0.900000 -0.900000 0.900000
vertex 0.900000 -0.800000 0.800000
endloop
endfacet
facet normal 1.000000 0.000000 0.000000
outer loop
vertex 0.900000 -0.800000 -0.100000
vertex 0.900000 -0.800000 -0.200000
vertex 0.900000 0.800000 -0.200000
endloop
endfacet
facet normal 1.000000 0.000000 0.000000
outer loop
vertex 0.900000 0.800000 -0.200000
vertex 0.900000 0.800000 -0.100000
vertex 0.900000 0.400000 -0.100000
endloop
endfacet
facet normal 1.000000 0.000000 0.000000
outer loop
vertex 0.900000 0.800000 -0.200000
vertex 0.900000 0.400000 -0.100000
vertex 0.900000 -0.800000 -0.100000
endloop
endfacet
facet normal 1.000000 0.000000 0.000000
outer loop
vertex 0.900000 -0.800000 -0.800000
vertex 0.900000 -0.900000 -0.900000
vertex 0.900000 0.900000 -0.900000
endloop
endfacet
facet normal 1.000000 0.000000 0.000000
outer loop
vertex 0.900000 -0.800000 -0.800000
vertex 0.900000 0.900000 -0.900000
vertex 0.900000 0.800000 -0.800000
endloop
endfacet
facet normal 1.000000 -0.000001 0.000000
outer loop
vertex 0.900000 -0.800000 0.400000
vertex 0.900000 -0.800000 0.800000
vertex 0.900000 -0.900000 0.900000
endloop
endfacet
facet normal 1.000000 0.000000 0.000000
outer loop
vertex 0.900000 -0.900000 0.900000
vertex 0.900000 -0.900000 -0.900000
vertex 0.900000 -0.800000 -0.800000
endloop
endfacet
facet normal 0.000000 -1.000000 0.000000
outer loop
vertex 0.900000 -0.800000 -0.800000
vertex 0.900000 -0.800000 -0.200000
vertex 0.900000 -0.800000 -0.100000
endloop
endfacet
facet normal 0.000000 -1.000000 0.000000
outer loop
vertex 0.900000 -0.800000 -0.100000
vertex 0.900000 -0.800000 0.300000
vertex 0.900000 -0.800000 0.400000
endloop
endfacet
facet normal 1.000000 0.000000 0.000000
outer loop
vertex 0.900000 -0.800000 0.400000
vertex 0.900000 -0.900000 0.900000
vertex 0.900000 -0.800000 -0.800000
endloop
endfacet
facet normal 0.000000 0.000000 0.000000
outer loop
vertex 0.900000 -0.800000 -0.800000
vertex 0.900000 -0.800000 -0.100000
vertex 0.900000 -0.800000 0.400000
endloop
endfacet
facet normal 1.000000 0.000000 0.000000
outer loop
vertex 0.900000 -0.800000 0.400000
vertex 0.900000 -0.800000 0.300000
vertex 0.900000 0.400000 0.300000
endloop
endfacet
facet normal 1.000000 0.000000 0.000000
outer loop
vertex 0.900000 0.400000 0.300000
vertex 0.900000 0.800000 0.300000
vertex 0.900000 0.800000 0.400000
endloop
endfacet
facet normal 1.000000 0.000000 0.000000
outer loop
vertex 0.900000 0.400000 0.300000
vertex 0.900000 0.800000 0.400000
vertex 0.900000 -0.800000 0.400000
endloop
endfacet
facet normal 1.000000 -0.000000 0.000000
outer loop
vertex 0.900000 0.800000 -0.200000
vertex 0.900000 0.800000 -0.800000
vertex 0.900000 0.900000 -0.900000
endloop
endfacet
facet normal 1.000000 -0.000000 0.000000
outer loop
vertex 0.900000 0.900000 -0.900000
vertex 0.900000 0.900000 0.900000
vertex 0.900000 0.800000 0.800000
endloop
endfacet
facet normal 0.000000 1.000000 0.000000
outer loop
vertex 0.900000 0.800000 0.800000
vertex 0.900000 0.800000 0.400000
vertex 0.900000 0.800000 0.300000
endloop
endfacet
facet normal 0.000000 1.000000 0.000000
outer loop
vertex 0.900000 0.800000 0.300000
vertex 0.900000 0.800000 -0.100000
vertex 0.900000 0.800000 -0.200000
endloop
endfacet
facet normal 1.000000 0.000002 0.000000
outer loop
vertex 0.900000 0.800000 -0.200000
vertex 0.900000 0.900000 -0.900000
vertex 0.900000 0.800000 0.800000
endloop
endfacet
facet normal 0.000000 0.000000 0.000000
outer loop
vertex 0.900000 0.800000 0.800000
vertex 0.900000 0.800000 0.300000
vertex 0.900000 0.800000 -0.200000
endloop
endfacet
facet normal 0.000000 1.000000 0.000000
outer loop
vertex 0.800000 0.950000 -0.160000
vertex -0.160000 0.950000 -0.160000
vertex -0.160000 0.950000 0.160000
endloop
endfacet
facet normal 0.000000 1.000000 0.000000
outer loop
vertex 0.800000 0.950000 -0.160000
vertex -0.160000 0.950000 0.160000
vertex 0.480000 0.950000 0.160000
endloop
endfacet
facet normal 0.000000 1.000000 0.000000
outer loop
vertex 0.800000 0.950000 -0.480000
vertex 0.800000 0.950000 -0.800000
vertex -0.800000 0.950000 -0.800000
endloop
endfacet
facet normal 0.000000 1.000000 -0.000001
outer loop
vertex -0.480000 0.950000 -0.480000
vertex 0.800000 0.950000 -0.480000
vertex -0.800000 0.950000 -0.800000
endloop
endfacet
facet normal 0.000000 1.000000 0.000000
outer loop
vertex 0.800000 0.950000 0.800000
vertex 0.800000 0.950000 -0.160000
vertex 0.480000 0.950000 0.160000
endloop
endfacet
facet normal 0.000000 1.000000 -0.000000
outer loop
vertex 0.800000 0.950000 0.800000
vertex 0.480000 0.950000 0.160000
vertex 0.480000 0.950000 0.480000
endloop
endfacet
facet normal 0.000000 1.000000 0.000000
outer loop
vertex -0.480000 0.950000 -0.480000
vertex -0.800000 0.950000 -0.800000
vertex -0.800000 0.950000 0.800000
endloop
endfacet
facet normal 0.000000 1.000000 0.000000
outer loop
vertex 0.800000 0.950000 0.800000
vertex 0.480000 0.950000 0.480000
vertex -0.480000 0.950000 0.480000
endloop
endfacet
facet normal 0.000000 1.000000 0.000000
outer loop
vertex -0.480000 0.950000 0.480000
vertex -0.480000 0.950000 -0.480000
vertex -0.800000 0.950000 0.800000
endloop
endfacet
facet normal 0.000000 1.000000 0.000000
outer loop
vertex -0.800000 0.950000 0.800000
vertex 0.800000 0.950000 0.800000
vertex -0.480000 0.950000 0.480000
endloop
endfacet
facet normal 0.000000 0.000000 1.000000
outer loop
vertex 0.800000 0.900000 0.800000
vertex 0.800000 0.950000 0.800000
vertex -0.800000 0.950000 0.800000
endloop
endfacet
facet normal 0.000000 0.000000 1.000000
outer loop
vertex 0.800000 0.900000 0.800000
vertex -0.800000 0.950000 0.800000
vertex -0.800000 0.900000 0.800000
endloop
endfacet
facet normal 1.000000 0.000000 0.000000
outer loop
vertex 0.800000 0.900000 -0.160000
vertex 0.800000 0.950000 -0.160000
vertex 0.800000 0.950000 0.800000
endloop
endfacet
facet normal 1.000000 0.000000 0.000000
outer loop
vertex 0.800000 0.900000 -0.160000
vertex 0.800000 0.950000 0.800000
vertex 0.800000 0.900000 0.800000
endloop
endfacet
facet normal 0.000000 0.000000 -1.000000
outer loop
vertex -0.160000 0.900000 -0.160000
vertex -0.160000 0.950000 -0.160000
vertex 0.800000 0.950000 -0.160000
endloop
endfacet
facet normal 0.000000 0.000000 -1.000000
outer loop
vertex -0.160000 0.900000 -0.160000
vertex 0.800000 0.950000 -0.160000
vertex 0.800000 0.900000 -0.160000
endloop
endfacet
facet normal -1.000000 0.000000 -0.000000
outer loop
vertex -0.160000 0.900000 0.160000
vertex -0.160000 0.950000 0.160000
vertex -0.160000 0.950000 -0.160000
endloop
endfacet
facet normal -1.000000 0.000000 -0.000000
outer loop
vertex -0.160000 0.900000 0.160000
vertex -0.160000 0.950000 -0.160000
vertex -0.160000 0.900000 -0.160000
endloop
endfacet
facet normal 0.000000 0.000000 1.000000
outer loop
vertex 0.480000 0.900000 0.160000
vertex 0.480000 0.950000 0.160000
vertex -0.160000 0.950000 0.160000
endloop
endfacet
facet normal 0.000000 0.000000 1.000000
outer loop
vertex 0.480000 0.900000 0.160000
vertex -0.160000 0.950000 0.160000
vertex -0.160000 0.900000 0.160000
endloop
endfacet
facet normal -1.000000 0.000000 -0.000000
outer loop
vertex 0.480000 0.900000 0.480000
vertex 0.480000 0.950000 0.480000
vertex 0.480000 0.950000 0.160000
endloop
endfacet
facet normal -1.000000 0.000000 -0.000000
outer loop
vertex 0.480000 0.900000 0.480000
vertex 0.480000 0.950000 0.160000
vertex 0.480000 0.900000 0.160000
endloop
endfacet
facet normal 0.000000 0.000000 -1.000000
outer loop
vertex -0.480000 0.900000 0.480000
vertex -0.480000 0.950000 0.480000
vertex 0.480000 0.950000 0.480000
endloop
endfacet
facet normal 0.000000 0.000000 -1.000000
outer loop
vertex -0.480000 0.900000 0.480000
vertex 0.480000 0.950000 0.480000
vertex 0.480000 0.900000 0.480000
endloop
endfacet
facet normal 1.000000 0.000000 0.000000
outer loop
vertex -0.480000 0.900000 -0.480000
vertex -0.480000 0.950000 -0.480000
vertex -0.480000 0.950000 0.480000
endloop
endfacet
facet normal 1.000000 0.000000 0.000000
outer loop
vertex -0.480000 0.900000 -0.480000
vertex -0.480000 0.950000 0.480000
vertex -0.480000 0.900000 0.480000
endloop
endfacet
facet normal 0.000000 0.000000 1.000000
outer loop
vertex 0.800000 0.900000 -0.480000
vertex 0.800000 0.950000 -0.480000
vertex -0.480000 0.950000 -0.480000
endloop
endfacet
facet normal 0.000000 0.000000 1.000000
outer loop
vertex 0.800000 0.900000 -0.480000
vertex -0.480000 0.950000 -0.480000
vertex -0.480000 0.900000 -0.480000
endloop
endfacet
facet normal 1.000000 0.000000 0.000000
outer loop
vertex 0.800000 0.900000 -0.800000
vertex 0.800000 0.950000 -0.800000
vertex 0.800000 0.950000 -0.480000
endloop
endfacet
facet normal 1.000000 0.000000 0.000000
outer loop
vertex 0.800000 0.900000 -0.800000
vertex 0.800000 0.950000 -0.480000
vertex 0.800000 0.900000 -0.480000
endloop
endfacet
facet normal 0.000000 0.000000 -1.000000
outer loop
vertex -0.800000 0.900000 -0.800000
vertex -0.800000 0.950000 -0.800000
vertex 0.800000 0.950000 -0.800000
endloop
endfacet
facet normal 0.000000 0.000000 -1.000000
outer loop
vertex -0.800000 0.900000 -0.800000
vertex 0.800000 0.950000 -0.800000
vertex 0.800000 0.900000 -0.800000
endloop
endfacet
facet normal -1.000000 0.000000 0.000000
outer loop
vertex -0.800000 0.900000 0.800000
vertex -0.800000 0.950000 0.800000
vertex -0.800000 0.950000 -0.800000
endloop
endfacet
facet normal -1.000000 0.000000 0.000000
outer loop
vertex -0.800000 0.900000 0.800000
vertex -0.800000 0.950000 -0.800000
vertex -0.800000 0.900000 -0.800000
endloop
endfacet
facet normal 0.000000 0.000000 1.000000
outer loop
vertex 0.800000 0.160000 0.950000
vertex -0.160000 0.160000 0.950000
vertex -0.160000 -0.160000 0.950000
endloop
endfacet
facet normal 0.000000 0.000000 1.000000
outer loop
vertex 0.800000 0.160000 0.950000
vertex -0.160000 -0.160000 0.950000
vertex 0.480000 -0.160000 0.950000
endloop
endfacet
facet normal 0.000000 0.000000 1.000000
outer loop
vertex 0.800000 0.480000 0.950000
vertex 0.800000 0.800000 0.950000
vertex -0.800000 0.800000 0.950000
endloop
endfacet
facet normal 0.000000 0.000000 1.000000
outer loop
vertex -0.480000 0.480000 0.950000
vertex 0.800000 0.480000 0.950000
vertex -0.800000 0.800000 0.950000
endloop
endfacet
facet normal -0.000000 0.000000 1.000000
outer loop
vertex 0.800000 -0.800000 0.950000
vertex 0.800000 0.160000 0.950000
vertex 0.480000 -0.160000 0.950000
endloop
endfacet
facet normal 0.000000 0.000000 1.000000
outer loop
vertex 0.800000 -0.800000 0.950000
vertex 0.480000 -0.160000 0.950000
vertex 0.480000 -0.480000 0.950000
endloop
endfacet
facet normal -0.000000 0.000000 1.000000
outer loop
vertex -0.480000 0.480000 0.950000
vertex -0.800000 0.800000 0.950000
vertex -0.800000 -0.800000 0.950000
endloop
endfacet
facet normal 0.000000 0.000000 1.000000
outer loop
vertex 0.800000 -0.800000 0.950000
vertex 0.480000 -0.480000 0.950000
vertex -0.480000 -0.480000 0.950000
endloop
endfacet
facet normal 0.000001 0.000000 1.000000
outer loop
vertex -0.480000 -0.480000 0.950000
vertex -0.480000 0.480000 0.950000
vertex -0.800000 -0.800000 0.950000
endloop
endfacet
facet normal 0.000000 0.000000 1.000000
outer loop
vertex -0.800000 -0.800000 0.950000
vertex 0.800000 -0.800000 0.950000
vertex -0.480000 -0.480000 0.950000
endloop
endfacet
facet normal -1.000000 0.000000 0.000000
outer loop
vertex -0.800000 -0.800000 0.900000
vertex -0.800000 -0.800000 0.950000
vertex -0.800000 0.800000 0.950000
endloop
endfacet
facet normal -1.000000 0.000000 0.000000
outer loop
vertex -0.800000 -0.800000 0.900000
vertex -0.800000 0.800000 0.950000
vertex -0.800000 0.800000 0.900000
endloop
endfacet
facet normal 0.000000 -1.000000 0.000000
outer loop
vertex 0.800000 -0.800000 0.900000
vertex 0.800000 -0.800000 0.950000
vertex -0.800000 -0.800000 0.950000
endloop
endfacet
facet normal 0.000000 -1.000000 0.000000
outer loop
vertex 0.800000 -0.800000 0.900000
vertex -0.800000 -0.800000 0.950000
vertex -0.800000 -0.800000 0.900000
endloop
endfacet
facet normal 1.000000 0.000000 0.000000
outer loop
vertex 0.800000 0.160000 0.900000
vertex 0.800000 0.160000 0.950000
vertex 0.800000 -0.800000 0.950000
endloop
endfacet
facet normal 1.000000 0.000000 0.000000
outer loop
vertex 0.800000 0.160000 0.900000
vertex 0.800000 -0.800000 0.950000
vertex 0.800000 -0.800000 0.900000
endloop
endfacet
facet normal 0.000000 1.000000 0.000000
outer loop
vertex -0.160000 0.160000 0.900000
vertex -0.160000 0.160000 0.950000
vertex 0.800000 0.160000 0.950000
endloop
endfacet
facet normal 0.000000 1.000000 0.000000
outer loop
vertex -0.160000 0.160000 0.900000
vertex 0.800000 0.160000 0.950000
vertex 0.800000 0.160000 0.900000
endloop
endfacet
facet normal -1.000000 0.000000 0.000000
outer loop
vertex -0.160000 -0.160000 0.900000
vertex -0.160000 -0.160000 0.950000
vertex -0.160000 0.160000 0.950000
endloop
endfacet
facet normal -1.000000 0.000000 0.000000
outer loop
vertex -0.160000 -0.160000 0.900000
vertex -0.160000 0.160000 0.950000
vertex -0.160000 0.160000 0.900000
endloop
endfacet
facet normal 0.000000 -1.000000 0.000000
outer loop
vertex 0.480000 -0.160000 0.900000
vertex 0.480000 -0.160000 0.950000
vertex -0.160000 -0.160000 0.950000
endloop
endfacet
facet normal 0.000000 -1.000000 0.000000
outer loop
vertex 0.480000 -0.160000 0.900000
vertex -0.160000 -0.160000 0.950000
vertex -0.160000 -0.160000 0.900000
endloop
endfacet
facet normal -1.000000 0.000000 0.000000
outer loop
vertex 0.480000 -0.480000 0.900000
vertex 0.480000 -0.480000 0.950000
vertex 0.480000 -0.160000 0.950000
endloop
endfacet
facet normal -1.000000 0.000000 0.000000
outer loop
vertex 0.480000 -0.480000 0.900000
vertex 0.480000 -0.160000 0.950000
vertex 0.480000 -0.160000 0.900000
endloop
endfacet
facet normal 0.000000 1.000000 0.000000
outer loop
vertex -0.480000 -0.480000 0.900000
vertex -0.480000 -0.480000 0.950000
vertex 0.480000 -0.480000 0.950000
endloop
endfacet
facet normal 0.000000 1.000000 0.000000
outer loop
vertex -0.480000 -0.480000 0.900000
vertex 0.480000 -0.480000 0.950000
vertex 0.480000 -0.480000 0.900000
endloop
endfacet
facet normal 1.000000 0.000000 0.000000
outer loop
vertex -0.480000 0.480000 0.900000
vertex -0.480000 0.480000 0.950000
vertex -0.480000 -0.480000 0.950000
endloop
endfacet
facet normal 1.000000 0.000000 0.000000
outer loop
vertex -0.480000 0.480000 0.900000
vertex -0.480000 -0.480000 0.950000
vertex -0.480000 -0.480000 0.900000
endloop
endfacet
facet normal 0.000000 -1.000000 0.000000
outer loop
vertex 0.800000 0.480000 0.900000
vertex 0.800000 0.480000 0.950000
vertex -0.480000 0.480000 0.950000
endloop
endfacet
facet normal 0.000000 -1.000000 0.000000
outer loop
vertex 0.800000 0.480000 0.900000
vertex -0.480000 0.480000 0.950000
vertex -0.480000 0.480000 0.900000
endloop
endfacet
facet normal 1.000000 0.000000 0.000000
outer loop
vertex 0.800000 0.800000 0.900000
vertex 0.800000 0.800000 0.950000
vertex 0.800000 0.480000 0.950000
endloop
endfacet
facet normal 1.000000 0.000000 0.000000
outer loop
vertex 0.800000 0.800000 0.900000
vertex 0.800000 0.480000 0.950000
vertex 0.800000 0.480000 0.900000
endloop
endfacet
facet normal 0.000000 1.000000 0.000000
outer loop
vertex -0.800000 0.800000 0.900000
vertex -0.800000 0.800000 0.950000
vertex 0.800000 0.800000 0.950000
endloop
endfacet
facet normal 0.000000 1.000000 0.000000
outer loop
vertex -0.800000 0.800000 0.900000
vertex 0.800000 0.800000 0.950000
vertex 0.800000 0.800000 0.900000
endloop
endfacet
facet normal 1.000000 0.000000 0.000000
outer loop
vertex 0.950000 -0.800000 -0.800000
vertex 0.950000 0.800000 -0.800000
vertex 0.950000 0.800000 -0.200000
endloop
endfacet
facet normal 1.000000 0.000000 0.000000
outer loop
vertex 0.950000 -0.800000 -0.800000
vertex 0.950000 0.800000 -0.200000
vertex 0.950000 -0.800000 -0.200000
endloop
endfacet
facet normal 0.000000 0.000000 -1.000000
outer loop
vertex 0.900000 0.800000 -0.800000
vertex 0.950000 0.800000 -0.800000
vertex 0.950000 -0.800000 -0.800000
endloop
endfacet
facet normal 0.000000 0.000000 -1.000000
outer loop
vertex 0.900000 0.800000 -0.800000
vertex 0.950000 -0.800000 -0.800000
vertex 0.900000 -0.800000 -0.800000
endloop
endfacet
facet normal 0.000000 1.000000 0.000000
outer loop
vertex 0.900000 0.800000 -0.200000
vertex 0.950000 0.800000 -0.200000
vertex 0.950000 0.800000 -0.800000
endloop
endfacet
facet normal 0.000000 1.000000 0.000000
outer loop
vertex 0.900000 0.800000 -0.200000
vertex 0.950000 0.800000 -0.800000
vertex 0.900000 0.800000 -0.800000
endloop
endfacet
facet normal 0.000000 0.000000 1.000000
outer loop
vertex 0.900000 -0.800000 -0.200000
vertex 0.950000 -0.800000 -0.200000
vertex 0.950000 0.800000 -0.200000
endloop
endfacet
facet normal 0.000000 0.000000 1.000000
outer loop
vertex 0.900000 -0.800000 -0.200000
vertex 0.950000 0.800000 -0.200000
vertex 0.900000 0.800000 -0.200000
endloop
endfacet
facet normal 0.000000 -1.000000 0.000000
outer loop
vertex 0.900000 -0.800000 -0.800000
vertex 0.950000 -0.800000 -0.800000
vertex 0.950000 -0.800000 -0.200000
endloop
endfacet
facet normal 0.000000 -1.000000 0.000000
outer loop
vertex 0.900000 -0.800000 -0.800000
vertex 0.950000 -0.800000 -0.200000
vertex 0.900000 -0.800000 -0.200000
endloop
endfacet
facet normal 1.000000 0.000000 0.000000
outer loop
vertex 0.950000 0.800000 0.800000
vertex 0.950000 -0.800000 0.800000
vertex 0.950000 -0.800000 0.400000
endloop
endfacet
facet normal 1.000000 0.000000 0.000000
outer loop
vertex 0.950000 0.800000 0.800000
vertex 0.950000 -0.800000 0.400000
vertex 0.950000 0.800000 0.400000
endloop
endfacet
facet normal 0.000000 0.000000 1.000000
outer loop
vertex 0.900000 -0.800000 0.800000
vertex 0.950000 -0.800000 0.800000
vertex 0.950000 0.800000 0.800000
endloop
endfacet
facet normal 0.000000 0.000000 1.000000
outer loop
vertex 0.900000 -0.800000 0.800000
vertex 0.950000 0.800000 0.800000
vertex 0.900000 0.800000 0.800000
endloop
endfacet
facet normal 0.000000 -1.000000 0.000000
outer loop
vertex 0.900000 -0.800000 0.400000
vertex 0.950000 -0.800000 0.400000
vertex 0.950000 -0.800000 0.800000
endloop
endfacet
facet normal 0.000000 -1.000000 0.000000
outer loop
vertex 0.900000 -0.800000 0.400000
vertex 0.950000 -0.800000 0.800000
vertex 0.900000 -0.800000 0.800000
endloop
endfacet
facet normal 0.000000 0.000000 -1.000000
outer loop
vertex 0.900000 0.800000 0.400000
vertex 0.950000 0.800000 0.400000
vertex 0.950000 -0.800000 0.400000
endloop
endfacet
facet normal 0.000000 0.000000 -1.000000
outer loop
vertex 0.900000 0.800000 0.400000
vertex 0.950000 -0.800000 0.400000
vertex 0.900000 -0.800000 0.400000
endloop
endfacet
facet normal 0.000000 1.000000 0.000000
outer loop
vertex 0.900000 0.800000 0.800000
vertex 0.950000 0.800000 0.800000
vertex 0.950000 0.800000 0.400000
endloop
endfacet
facet normal 0.000000 1.000000 0.000000
outer loop
vertex 0.900000 0.800000 0.800000
vertex 0.950000 0.800000 0.400000
vertex 0.900000 0.800000 0.400000
endloop
endfacet
facet normal 1.000000 0.000000 0.000000
outer loop
vertex 0.950000 -0.800000 -0.100000
vertex 0.950000 0.400000 -0.100000
vertex 0.950000 0.400000 0.300000
endloop
endfacet
facet normal 1.000000 0.000000 0.000000
outer loop
vertex 0.950000 -0.800000 -0.100000
vertex 0.950000 0.400000 0.300000
vertex 0.950000 -0.800000 0.300000
endloop
endfacet
facet normal 0.000000 0.000000 -1.000000
outer loop
vertex 0.900000 0.400000 -0.100000
vertex 0.950000 0.400000 -0.100000
vertex 0.950000 -0.800000 -0.100000
endloop
endfacet
facet normal 0.000000 0.000000 -1.000000
outer loop
vertex 0.900000 0.400000 -0.100000
vertex 0.950000 -0.800000 -0.100000
vertex 0.900000 -0.800000 -0.100000
endloop
endfacet
facet normal 0.000000 1.000000 0.000000
outer loop
vertex 0.900000 0.400000 0.300000
vertex 0.950000 0.400000 0.300000
vertex 0.950000 0.400000 -0.100000
endloop
endfacet
facet normal 0.000000 1.000000 0.000000
outer loop
vertex 0.900000 0.400000 0.300000
vertex 0.950000 0.400000 -0.100000
vertex 0.900000 0.400000 -0.100000
endloop
endfacet
facet normal 0.000000 0.000000 1.000000
outer loop
vertex 0.900000 -0.800000 0.300000
vertex 0.950000 -0.800000 0.300000
vertex 0.950000 0.400000 0.300000
endloop
endfacet
facet normal 0.000000 0.000000 1.000000
outer loop
vertex 0.900000 -0.800000 0.300000
vertex 0.950000 0.400000 0.300000
vertex 0.900000 0.400000 0.300000
endloop
endfacet
facet normal 0.000000 -1.000000 0.000000
outer loop
vertex 0.900000 -0.800000 -0.100000
vertex 0.950000 -0.800000 -0.100000
vertex 0.950000 -0.800000 0.300000
endloop
endfacet
facet normal 0.000000 -1.000000 0.000000
outer loop
vertex 0.900000 -0.800000 -0.100000
vertex 0.950000 -0.800000 0.300000
vertex 0.900000 -0.800000 0.300000
endloop
endfacet
facet normal 1.000000 0.000000 0.000000
outer loop
vertex -0.900000 0.400000 -0.100000
vertex -0.900000 0.800000 -0.100000
vertex -0.900000 0.800000 0.300000
endloop
endfacet
facet normal 1.000000 0.000000 0.000000
outer loop
vertex -0.900000 0.400000 -0.100000
vertex -0.900000 0.800000 0.300000
vertex -0.900000 0.400000 0.300000
endloop
endfacet
facet normal 0.000000 0.000000 1.000000
outer loop
vertex 0.900000 0.800000 -0.100000
vertex -0.900000 0.800000 -0.100000
vertex -0.900000 0.400000 -0.100000
endloop
endfacet
facet normal 0.000000 0.000000 1.000000
outer loop
vertex 0.900000 0.800000 -0.100000
vertex -0.900000 0.400000 -0.100000
vertex 0.900000 0.400000 -0.100000
endloop
endfacet
facet normal 0.000000 -1.000000 0.000000
outer loop
vertex 0.900000 0.800000 0.300000
vertex -0.900000 0.800000 0.300000
vertex -0.900000 0.800000 -0.100000
endloop
endfacet
facet normal 0.000000 -1.000000 0.000000
outer loop
vertex 0.900000 0.800000 0.300000
vertex -0.900000 0.800000 -0.100000
vertex 0.900000 0.800000 -0.100000
endloop
endfacet
facet normal 0.000000 0.000000 -1.000000
outer loop
vertex 0.900000 0.400000 0.300000
vertex -0.900000 0.400000 0.300000
vertex -0.900000 0.800000 0.300000
endloop
endfacet
facet normal 0.000000 0.000000 -1.000000
outer loop
vertex 0.900000 0.400000 0.300000
vertex -0.900000 0.800000 0.300000
vertex 0.900000 0.800000 0.300000
endloop
endfacet
facet normal 0.000000 1.000000 0.000000
outer loop
vertex 0.900000 0.400000 -0.100000
vertex -0.900000 0.400000 -0.100000
vertex -0.900000 0.400000 0.300000
endloop
endfacet
facet normal 0.000000 1.000000 0.000000
outer loop
vertex 0.900000 0.400000 -0.100000
vertex -0.900000 0.400000 0.300000
vertex 0.900000 0.400000 0.300000
endloop
endfacet
facet normal 0.000000 1.000000 0.000000
outer loop
vertex 0.900000 -0.900000 0.900000
vertex 1.000000 -0.900000 1.000000
vertex 1.000000 -0.900000 -0.900000
endloop
endfacet
facet normal 0.000000 1.000000 0.000000
outer loop
vertex 0.900000 -0.900000 0.900000
vertex 1.000000 -0.900000 -0.900000
vertex 0.900000 -0.900000 -0.900000
endloop
endfacet
facet normal 0.000000 0.000000 1.000000
outer loop
vertex 0.900000 0.900000 -0.900000
vertex 1.000000 1.000000 -0.900000
vertex -0.900000 1.000000 -0.900000
endloop
endfacet
facet normal 0.000000 0.000000 1.000000
outer loop
vertex 0.900000 0.900000 -0.900000
vertex -0.900000 1.000000 -0.900000
vertex -0.900000 0.900000 -0.900000
endloop
endfacet
facet normal 1.000000 0.000000 0.000000
outer loop
vertex -0.900000 1.000000 1.000000
vertex -0.900000 0.900000 0.900000
vertex -0.900000 0.900000 -0.900000
endloop
endfacet
facet normal 1.000000 0.000000 0.000000
outer loop
vertex -0.900000 1.000000 1.000000
vertex -0.900000 0.900000 -0.900000
vertex -0.900000 1.000000 -0.900000
endloop
endfacet
facet normal 0.000000 1.000000 0.000000
outer loop
vertex -1.000000 1.000000 -1.000000
vertex -1.000000 1.000000 -0.986669
vertex -0.900000 1.000000 -0.900000
endloop
endfacet
facet normal 0.000000 1.000000 0.000000
outer loop
vertex -0.900000 1.000000 -0.900000
vertex 1.000000 1.000000 -0.900000
vertex 1.000000 1.000000 -1.000000
endloop
endfacet
facet normal 0.000000 1.000000 0.000000
outer loop
vertex -0.900000 1.000000 -0.900000
vertex 1.000000 1.000000 -1.000000
vertex -1.000000 1.000000 -1.000000
endloop
endfacet
facet normal 0.000000 0.000000 1.000000
outer loop
vertex -1.000000 -1.000000 1.000000
vertex 1.000000 -1.000000 1.000000
vertex 1.000000 -0.900000 1.000000
endloop
endfacet
facet normal 0.000000 0.000000 1.000000
outer loop
vertex -1.000000 -1.000000 1.000000
vertex 1.000000 -0.900000 1.000000
vertex -0.900000 -0.900000 1.000000
endloop
endfacet
facet normal 1.000000 0.000000 0.000000
outer loop
vertex 1.000000 -1.000000 -1.000000
vertex 1.000000 -0.900000 -0.900000
vertex 1.000000 -0.900000 1.000000
endloop
endfacet
facet normal 1.000000 0.000000 0.000000
outer loop
vertex 1.000000 -1.000000 -1.000000
vertex 1.000000 -0.900000 1.000000
vertex 1.000000 -1.000000 1.000000
endloop
endfacet
endsolid Exported from Blender-2.80 (sub 75)
