{
    "asset" : {
        "generator" : "Khronos glTF Blender I/O v0.9.36",
        "version" : "2.0"
    },
    "scene" : 0,
    "scenes" : [
        {
            "name" : "Scene",
            "nodes" : [
                0,
                1,
                2
            ]
        }
    ],
    "nodes" : [
        {
            "mesh" : 0,
            "name" : "Logo"
        },
        {
            "name" : "Camera",
            "rotation" : [
                0.4244531989097595,
                0.3399057984352112,
                -0.17581428587436676,
                0.8206051588058472
            ],
            "translation" : [
                7,
                7,
                7
            ]
        },
        {
            "name" : "Light",
            "rotation" : [
                0.27781593799591064,
                -0.11507512629032135,
                -0.36497169733047485,
                0.8811195492744446
            ],
            "translation" : [
                5,
                5,
                5
            ]
        }
    ],
    "materials" : [
        {
            "doubleSided" : true,
            "name" : "Base",
            "pbrMetallicRoughness" : {
                "baseColorFactor" : [
                    0,
                    0,
                    0,
                    1
                ],
                "metallicFactor" : 0.836363673210144,
                "roughnessFactor" : 0.7272727489471436
            }
        },
        {
            "doubleSided" : true,
            "name" : "Faces",
            "pbrMetallicRoughness" : {
                "baseColorFactor" : [
                    1,
                    1,
                    1,
                    1
                ],
                "metallicFactor" : 0,
                "roughnessFactor" : 0
            }
        },
        {
            "doubleSided" : true,
            "name" : "Edges",
            "pbrMetallicRoughness" : {
                "baseColorFactor" : [
                    0.5334438681602478,
                    0.5334438681602478,
                    0.5334438681602478,
                    1
                ],
                "metallicFactor" : 0,
                "roughnessFactor" : 0.5
            }
        }
    ],
    "meshes" : [
        {
            "name" : "Cube",
            "primitives" : [
                {
                    "attributes" : {
                        "POSITION" : 0,
                        "NORMAL" : 1,
                        "TEXCOORD_0" : 2
                    },
                    "indices" : 3,
                    "material" : 0
                },
                {
                    "attributes" : {
                        "POSITION" : 4,
                        "NORMAL" : 5,
                        "TEXCOORD_0" : 6
                    },
                    "indices" : 7,
                    "material" : 1
                },
                {
                    "attributes" : {
                        "POSITION" : 8,
                        "NORMAL" : 9,
                        "TEXCOORD_0" : 10
                    },
                    "indices" : 11,
                    "material" : 2
                }
            ]
        }
    ],
    "accessors" : [
        {
            "bufferView" : 0,
            "componentType" : 5126,
            "count" : 103,
            "max" : [
                1,
                1,
                1
            ],
            "min" : [
                -1,
                -1,
                -1
            ],
            "type" : "VEC3"
        },
        {
            "bufferView" : 1,
            "componentType" : 5126,
            "count" : 103,
            "type" : "VEC3"
        },
        {
            "bufferView" : 2,
            "componentType" : 5126,
            "count" : 103,
            "type" : "VEC2"
        },
        {
            "bufferView" : 3,
            "componentType" : 5123,
            "count" : 243,
            "type" : "SCALAR"
        },
        {
            "bufferView" : 4,
            "componentType" : 5126,
            "count" : 55,
            "max" : [
                1,
                1,
                1
            ],
            "min" : [
                -1,
                -1,
                -1
            ],
            "type" : "VEC3"
        },
        {
            "bufferView" : 5,
            "componentType" : 5126,
            "count" : 55,
            "type" : "VEC3"
        },
        {
            "bufferView" : 6,
            "componentType" : 5126,
            "count" : 55,
            "type" : "VEC2"
        },
        {
            "bufferView" : 7,
            "componentType" : 5123,
            "count" : 117,
            "type" : "SCALAR"
        },
        {
            "bufferView" : 8,
            "componentType" : 5126,
            "count" : 146,
            "max" : [
                0.949999988079071,
                0.949999988079071,
                0.949999988079071
            ],
            "min" : [
                -0.8999999761581421,
                -0.7999999523162842,
                -0.7999999523162842
            ],
            "type" : "VEC3"
        },
        {
            "bufferView" : 9,
            "componentType" : 5126,
            "count" : 146,
            "type" : "VEC3"
        },
        {
            "bufferView" : 10,
            "componentType" : 5126,
            "count" : 146,
            "type" : "VEC2"
        },
        {
            "bufferView" : 11,
            "componentType" : 5123,
            "count" : 222,
            "type" : "SCALAR"
        }
    ],
    "bufferViews" : [
        {
            "buffer" : 0,
            "byteLength" : 1236,
            "byteOffset" : 0
        },
        {
            "buffer" : 0,
            "byteLength" : 1236,
            "byteOffset" : 1236
        },
        {
            "buffer" : 0,
            "byteLength" : 824,
            "byteOffset" : 2472
        },
        {
            "buffer" : 0,
            "byteLength" : 486,
            "byteOffset" : 3296
        },
        {
            "buffer" : 0,
            "byteLength" : 660,
            "byteOffset" : 3784
        },
        {
            "buffer" : 0,
            "byteLength" : 660,
            "byteOffset" : 4444
        },
        {
            "buffer" : 0,
            "byteLength" : 440,
            "byteOffset" : 5104
        },
        {
            "buffer" : 0,
            "byteLength" : 234,
            "byteOffset" : 5544
        },
        {
            "buffer" : 0,
            "byteLength" : 1752,
            "byteOffset" : 5780
        },
        {
            "buffer" : 0,
            "byteLength" : 1752,
            "byteOffset" : 7532
        },
        {
            "buffer" : 0,
            "byteLength" : 1168,
            "byteOffset" : 9284
        },
        {
            "buffer" : 0,
            "byteLength" : 444,
            "byteOffset" : 10452
        }
    ],
    "buffers" : [
        {
            "byteLength" : 10896,
            "uri" : "data:application/octet-stream;base64,"
        }
    ]
}
