<?xml version="1.0" encoding="UTF-8"?>
<svg width="876px" height="1010px" viewBox="0 0 876 1010" version="1.1" xmlns="http://www.w3.org/2000/svg" xmlns:xlink="http://www.w3.org/1999/xlink">
    <!-- Generator: Sketch 61.2 (89653) - https://sketch.com -->
    <title>Group</title>
    <desc>Created with Sketch.</desc>
    <g id="Page-1" stroke="none" stroke-width="1" fill="none" fill-rule="evenodd">
        <g id="Group" transform="translate(1.000000, 1.000000)" stroke="#979797">
            <polygon id="Path-2" fill="#FFFFFF" points="437 1008.321 874 757.726 873.191 252.816 437 0 0.809 252.816 0 757.726"></polygon>
            <polygon id="Path-3" fill="#000000" points="437 51.32 44.428 278.003 44.428 731.275 437 957.958 829.572 731.275 829.572 278.003"></polygon>
            <polygon id="Path-4" fill="#FFFFFF" points="437 114.28 131.666 290.589 437 466.898 620.2 361.112 437 255.327 375.933 290.589 499.1575 361.112 437 396.374 253.8 290.589 437 184.803 681.267 325.85 742.334 290.589"></polygon>
            <polygon id="Path-5" fill="#FFFFFF" points="404.286 523.561 404.286 594.069 160.019 453.022 160.019 664.549 343.219 770.335 343.219 699.826 221.085 629.302 221.085 558.801 404.286 664.549 404.286 876.105 98.952 699.826 98.952 347.252"></polygon>
            <polygon id="Path-6" fill="#FFFFFF" points="469.714 523.5455 550.41 478.203 550.41 829.509 469.714 873.512"></polygon>
            <polygon id="Path-7" fill="#FFFFFF" points="572.719 565.098 642.01 524.799 642.01 776.617 572.719 816.916"></polygon>
            <polygon id="Path-8" fill="#FFFFFF" points="663.819 411.478 775.048 347.252 775.048 699.796 663.819 764.023"></polygon>
        </g>
    </g>
</svg>