{
	"buffers": [
		{
			"uri": "data:application/octet-stream;base64,",
			"byteLength": 458464
		}
	],
	"extras": {
		"animationList": null
	},
	"extensionsUsed": [
		"KHR_texture_transform",
    "KHR_materials_specular",
    "KHR_materials_ior"
	],
	"extensionsRequired": [
		"KHR_materials_specular"
	],
	"accessors": [
		{
			"bufferView": 0,
			"componentType": 5126,
			"count": 92,
			"type": "MAT4"
		},
		{
			"bufferView": 1,
			"componentType": 5126,
			"count": 3834,
			"type": "VEC3",
			"max": [
				0.4084111452102661,
				2.125135898590088,
				1.6118382215499878
			],
			"min": [
				-0.39283865690231323,
				0.39722248911857605,
				-1.6738929748535156
			]
		},
		{
			"bufferView": 2,
			"componentType": 5126,
			"count": 3834,
			"type": "VEC2"
		},
		{
			"bufferView": 3,
			"componentType": 5121,
			"normalized": true,
			"count": 3834,
			"type": "VEC4"
		},
		{
			"bufferView": 4,
			"componentType": 5123,
			"count": 7905,
			"type": "SCALAR"
		},
		{
			"bufferView": 5,
			"componentType": 5123,
			"count": 3834,
			"type": "VEC4"
		},
		{
			"bufferView": 6,
			"componentType": 5121,
			"normalized": true,
			"count": 3834,
			"type": "VEC4"
		},
		{
			"bufferView": 7,
			"componentType": 5126,
			"count": 3834,
			"type": "VEC3"
		},
		{
			"bufferView": 8,
			"componentType": 5126,
			"count": 4345,
			"type": "VEC3",
			"max": [
				0.3640841841697693,
				2.040982484817505,
				1.6320829391479492
			],
			"min": [
				-0.3640882670879364,
				-0.006918209604918957,
				-1.623228669166565
			]
		},
		{
			"bufferView": 9,
			"componentType": 5126,
			"count": 4345,
			"type": "VEC2"
		},
		{
			"bufferView": 10,
			"componentType": 5121,
			"normalized": true,
			"count": 4345,
			"type": "VEC4"
		},
		{
			"bufferView": 11,
			"componentType": 5123,
			"count": 22086,
			"type": "SCALAR"
		},
		{
			"bufferView": 12,
			"componentType": 5123,
			"count": 4345,
			"type": "VEC4"
		},
		{
			"bufferView": 13,
			"componentType": 5121,
			"normalized": true,
			"count": 4345,
			"type": "VEC4"
		},
		{
			"bufferView": 14,
			"componentType": 5126,
			"count": 4345,
			"type": "VEC3"
		}
	],
	"asset": {
		"generator": "New World Buddy Tools",
		"version": "2.0"
	},
	"bufferViews": [
		{
			"buffer": 0,
			"byteLength": 5888
		},
		{
			"buffer": 0,
			"byteOffset": 5888,
			"byteLength": 46008,
			"target": 34962
		},
		{
			"buffer": 0,
			"byteOffset": 51896,
			"byteLength": 30672,
			"target": 34962
		},
		{
			"buffer": 0,
			"byteOffset": 82568,
			"byteLength": 15336,
			"target": 34962
		},
		{
			"buffer": 0,
			"byteOffset": 97904,
			"byteLength": 15810,
			"target": 34963
		},
		{
			"buffer": 0,
			"byteOffset": 113716,
			"byteLength": 30672,
			"target": 34962
		},
		{
			"buffer": 0,
			"byteOffset": 144388,
			"byteLength": 15336,
			"target": 34962
		},
		{
			"buffer": 0,
			"byteOffset": 159724,
			"byteLength": 46008,
			"target": 34962
		},
		{
			"buffer": 0,
			"byteOffset": 205732,
			"byteLength": 52140,
			"target": 34962
		},
		{
			"buffer": 0,
			"byteOffset": 257872,
			"byteLength": 34760,
			"target": 34962
		},
		{
			"buffer": 0,
			"byteOffset": 292632,
			"byteLength": 17380,
			"target": 34962
		},
		{
			"buffer": 0,
			"byteOffset": 310012,
			"byteLength": 44172,
			"target": 34963
		},
		{
			"buffer": 0,
			"byteOffset": 354184,
			"byteLength": 34760,
			"target": 34962
		},
		{
			"buffer": 0,
			"byteOffset": 388944,
			"byteLength": 17380,
			"target": 34962
		},
		{
			"buffer": 0,
			"byteOffset": 406324,
			"byteLength": 52140,
			"target": 34962
		}
	],
	"images": [
		{
			"uri": "./bobcat_fur_diff.png",
			"mimeType": "image/png"
		},
		{
			"uri": "./bobcat_fur_ddna.png",
			"mimeType": "image/png"
		},
		{
			"uri": "./bobcat_fur_spec.png",
			"mimeType": "image/png"
		},
		{
			"uri": "./bobcat_fur_ddna.a.png",
			"mimeType": "image/png"
		},
		{
			"uri": "./bobcatstrange_mask.png",
			"mimeType": "image/png"
		},
		{
			"uri": "./bobcat_diff.png",
			"mimeType": "image/png"
		},
		{
			"uri": "./bobcat_ddna.png",
			"mimeType": "image/png"
		},
		{
			"uri": "./bobcat_spec.png",
			"mimeType": "image/png"
		},
		{
			"uri": "./bobcat_ddna.a.png",
			"mimeType": "image/png"
		}
	],
	"materials": [
		{
			"alphaCutoff": 0.5899999737739563,
			"name": "fur",
      "extensions": {
        "KHR_materials_ior": {
          "ior": 0
        },
        "KHR_materials_specular": {
          "specularFactor": 0.74,
          "specularTexture": {
            "index": 3
          },
          "specularColorFactor": [1.0, 1.0, 1.0],
          "specularColorTexture": {
            "index": 2
          }
        }
      },
			"pbrMetallicRoughness": {
				"baseColorFactor": [
					0.485150009393692,
					0.485150009393692,
					0.485150009393692,
					0.6800000071525574
				],
				"baseColorTexture": {
					"index": 0
				},
        "metallicFactor": 0
			},
			"normalTexture": {
				"index": 1
			},
			"alphaMode": "MASK",
			"doubleSided": true
		},
		{
			"alphaCutoff": 0,
			"extensions": {
        "KHR_materials_ior": {
          "ior": 0
        },
        "KHR_materials_specular": {
          "specularFactor": 0.74,
          "specularTexture": {
            "index": 8
          },
          "specularColorFactor": [1.0, 1.0, 1.0],
          "specularColorTexture": {
            "index": 7
          }
        }
			},
			"name": "body",
			"pbrMetallicRoughness": {
				"baseColorFactor": [
					0.4910210072994232,
					0.4910210072994232,
					0.4910210072994232,
					1
				],
				"baseColorTexture": {
					"index": 5
				},
        "metallicFactor": 0,
				"roughnessFactor": 0.26145094633102417
			},
			"normalTexture": {
				"index": 6
			},
			"alphaMode": "MASK",
			"doubleSided": true
		}
	],
	"meshes": [
		{
			"primitives": [
				{
					"extras": {
						"name": "bobcat_mesh",
						"source": "objects/characters/npc/natural/bobcat/bobcat_mesh.skin"
					},
					"attributes": {
						"COLOR_0": 3,
						"JOINTS_0": 5,
						"NORMAL": 7,
						"POSITION": 1,
						"TEXCOORD_0": 2,
						"WEIGHTS_0": 6
					},
					"indices": 4,
					"material": 0
				},
				{
					"extras": {
						"name": "bobcat_mesh",
						"source": "objects/characters/npc/natural/bobcat/bobcat_mesh.skin"
					},
					"attributes": {
						"COLOR_0": 10,
						"JOINTS_0": 12,
						"NORMAL": 14,
						"POSITION": 8,
						"TEXCOORD_0": 9,
						"WEIGHTS_0": 13
					},
					"indices": 11,
					"material": 1
				}
			]
		}
	],
	"nodes": [
		{
			"matrix": [
				1,
				-1.2246468525851679e-16,
				1.2246468525851679e-16,
				-0,
				1.2246468525851679e-16,
				1,
				-2.220446049250313e-16,
				0,
				-1.2246467202362698e-16,
				2.220445916901415e-16,
				0.9999999403953552,
				0,
				-0,
				0,
				0,
				1
			],
			"extras": {
				"controllerId": 3180155204,
				"inverse": [
					1,
					1.2246469e-16,
					-1.2246467e-16,
					-0,
					-1.2246469e-16,
					1,
					2.2204459e-16,
					0,
					1.2246469e-16,
					-2.220446e-16,
					0.99999994,
					0,
					-0,
					0,
					-0,
					1
				],
				"limbId": -1
			},
			"name": "Xform",
			"children": [
				1
			]
		},
		{
			"matrix": [
				-1,
				1.6587669817072785e-22,
				8.74227694680485e-8,
				0,
				8.742277657347586e-8,
				-4.371138828673793e-8,
				0.9999999403953552,
				0,
				3.821370506812936e-15,
				0.9999999403953552,
				4.371138118131057e-8,
				0,
				-3.810903297167241e-15,
				1.430564284324646,
				-0.6777153611183167,
				1
			],
			"extras": {
				"controllerId": 4130362049,
				"inverse": [
					-1,
					8.742278e-8,
					3.9438354e-15,
					-0,
					1.2246487e-16,
					-4.371139e-8,
					0.99999994,
					0,
					8.742278e-8,
					1,
					4.3711385e-8,
					0,
					5.924776e-8,
					0.6777155,
					-1.4305642,
					1
				],
				"limbId": -1
			},
			"name": "bind_hips",
			"children": [
				2,
				3
			]
		},
		{
			"matrix": [
				1,
				0,
				0,
				0,
				0,
				1,
				0,
				0,
				0,
				0,
				0.9999998807907104,
				0,
				0,
				0,
				0,
				1
			],
			"extras": {
				"controllerId": 1562346827,
				"inverse": [
					-1,
					8.742278e-8,
					3.9438354e-15,
					-0,
					1.2246487e-16,
					-4.371139e-8,
					0.99999994,
					0,
					8.742278e-8,
					1,
					4.3711385e-8,
					0,
					5.924776e-8,
					0.6777155,
					-1.4305642,
					1
				],
				"limbId": -1
			},
			"name": "bind_pelvis",
			"children": [
				4,
				5,
				6
			]
		},
		{
			"matrix": [
				1,
				0,
				0,
				0,
				0,
				1,
				0,
				0,
				0,
				0,
				0.9999998807907104,
				0,
				-3.552713678800501e-15,
				0,
				0,
				1
			],
			"extras": {
				"controllerId": 2278841173,
				"inverse": [
					-1,
					8.742278e-8,
					3.9438354e-15,
					-0,
					1.2246487e-16,
					-4.371139e-8,
					0.99999994,
					0,
					8.742278e-8,
					1,
					4.3711385e-8,
					0,
					5.9247764e-8,
					0.6777155,
					-1.4305642,
					1
				],
				"limbId": -1
			},
			"name": "bind_upperbody",
			"children": [
				46
			]
		},
		{
			"matrix": [
				-1,
				8.742279078433057e-8,
				3.82137093032941e-15,
				0,
				-8.742279078433057e-8,
				-1,
				-8.74227694680485e-8,
				0,
				-3.82137093032941e-15,
				-8.74227694680485e-8,
				0.9999998807907104,
				0,
				-3.4365669421276834e-8,
				-0.393097460269928,
				0.05847775936126709,
				1
			],
			"extras": {
				"controllerId": 1875138356,
				"inverse": [
					1,
					1.4134159e-14,
					1.224653e-16,
					-0,
					-1.2246469e-16,
					-4.371139e-8,
					0.99999994,
					0,
					1.4134159e-14,
					-1,
					-4.3711385e-8,
					0,
					1.37135295e-14,
					-1.0708127,
					-1.4890419,
					1
				],
				"limbId": -1
			},
			"name": "bind_tail_a",
			"children": [
				7
			]
		},
		{
			"matrix": [
				1,
				6.357301884918343e-8,
				1.0412253459435306e-7,
				0,
				-6.357301174375607e-8,
				1,
				0,
				0,
				-1.0412253459435306e-7,
				-3.552713678800501e-15,
				0.9999998807907104,
				0,
				-0.2124764323234558,
				-0.13457024097442627,
				0.07397770881652832,
				1
			],
			"extras": {
				"controllerId": 3055043514,
				"inverse": [
					-1,
					1.5099579e-7,
					1.0412254e-7,
					-0,
					1.0412254e-7,
					-4.371139e-8,
					0.99999994,
					0,
					1.509958e-7,
					1,
					4.371137e-8,
					0,
					0.21247637,
					0.81228566,
					-1.5045419,
					1
				],
				"limbId": -1
			},
			"name": "bind_left_back_hip_offset",
			"children": [
				16
			]
		},
		{
			"matrix": [
				1,
				-2.384185791015625e-7,
				-2.082450691887061e-7,
				0,
				-2.384185791015625e-7,
				-1,
				-8.74227694680485e-8,
				0,
				-2.082450691887061e-7,
				8.742281920604e-8,
				-0.9999998807907104,
				0,
				0.21247598528862,
				-0.13457053899765015,
				0.07397568225860596,
				1
			],
			"extras": {
				"controllerId": 3019297160,
				"inverse": [
					-1,
					1.509958e-7,
					2.0824507e-7,
					-0,
					-2.0824508e-7,
					-4.371139e-8,
					-0.99999994,
					0,
					-1.509958e-7,
					-1,
					4.3711417e-8,
					0,
					-0.2124758,
					-0.81228584,
					1.50454,
					1
				],
				"limbId": -1
			},
			"name": "bind_right_back_hip_offset",
			"children": [
				31
			]
		},
		{
			"matrix": [
				1,
				0,
				4.2161270613824944e-24,
				0,
				0,
				1,
				0,
				0,
				4.2161270613824944e-24,
				0,
				0.9999998807907104,
				0,
				-2.260146483488122e-15,
				0.13200008869171143,
				0,
				1
			],
			"extras": {
				"controllerId": 4140631694,
				"inverse": [
					1,
					1.4134159e-14,
					1.224653e-16,
					-0,
					-1.2246469e-16,
					-4.371139e-8,
					0.99999994,
					0,
					1.4134159e-14,
					-1,
					-4.3711385e-8,
					0,
					1.5973676e-14,
					-1.2028128,
					-1.4890419,
					1
				],
				"limbId": -1
			},
			"name": "bind_tail_b",
			"children": [
				8
			]
		},
		{
			"matrix": [
				1,
				0,
				4.2161270613824944e-24,
				0,
				0,
				1,
				0,
				0,
				4.2161270613824944e-24,
				0,
				0.9999998807907104,
				0,
				-6.6330133659947554e-15,
				0.14399993419647217,
				0,
				1
			],
			"extras": {
				"controllerId": 2177512984,
				"inverse": [
					1,
					1.4134159e-14,
					1.224653e-16,
					-0,
					-1.2246469e-16,
					-4.371139e-8,
					0.99999994,
					0,
					1.4134159e-14,
					-1,
					-4.3711385e-8,
					0,
					2.260669e-14,
					-1.3468127,
					-1.4890419,
					1
				],
				"limbId": -1
			},
			"name": "bind_tail_c",
			"children": [
				9
			]
		},
		{
			"matrix": [
				1,
				0,
				4.2161270613824944e-24,
				0,
				0,
				1,
				0,
				0,
				4.2161270613824944e-24,
				0,
				0.9999998807907104,
				0,
				-7.22864354637219e-15,
				0.15599989891052246,
				1.1920928955078125e-7,
				1
			],
			"extras": {
				"controllerId": 531538875,
				"inverse": [
					1,
					1.4134159e-14,
					1.224653e-16,
					-0,
					-1.2246469e-16,
					-4.371139e-8,
					0.99999994,
					0,
					1.4134159e-14,
					-1,
					-4.3711385e-8,
					0,
					2.9835333e-14,
					-1.5028126,
					-1.489042,
					1
				],
				"limbId": -1
			},
			"name": "bind_tail_d",
			"children": [
				10
			]
		},
		{
			"matrix": [
				1,
				0,
				4.2161270613824944e-24,
				0,
				0,
				1,
				0,
				0,
				4.2161270613824944e-24,
				0,
				0.9999998807907104,
				0,
				-8.054951291473073e-15,
				0.14371860027313232,
				0,
				1
			],
			"extras": {
				"controllerId": 1755943725,
				"inverse": [
					1,
					1.4134159e-14,
					1.224653e-16,
					-0,
					-1.2246469e-16,
					-4.371139e-8,
					0.99999994,
					0,
					1.4134159e-14,
					-1,
					-4.3711385e-8,
					0,
					3.7890284e-14,
					-1.6465312,
					-1.489042,
					1
				],
				"limbId": -1
			},
			"name": "bind_tail_e",
			"children": [
				11
			]
		},
		{
			"matrix": [
				1,
				0,
				4.2161270613824944e-24,
				0,
				0,
				1,
				0,
				0,
				4.2161270613824944e-24,
				0,
				0.9999998807907104,
				0,
				-8.113640510322429e-15,
				0.15571832656860352,
				0,
				1
			],
			"extras": {
				"controllerId": 4053844631,
				"inverse": [
					1,
					1.4134159e-14,
					1.224653e-16,
					-0,
					-1.2246469e-16,
					-4.371139e-8,
					0.99999994,
					0,
					1.4134159e-14,
					-1,
					-4.3711385e-8,
					0,
					4.6003925e-14,
					-1.8022496,
					-1.489042,
					1
				],
				"limbId": -1
			},
			"name": "bind_tail_f",
			"children": [
				12
			]
		},
		{
			"matrix": [
				1,
				0,
				4.2161270613824944e-24,
				0,
				0,
				1,
				0,
				0,
				4.2161270613824944e-24,
				0,
				0.9999998807907104,
				0,
				-6.717249098533301e-15,
				0.1677185297012329,
				0,
				1
			],
			"extras": {
				"controllerId": 2259153409,
				"inverse": [
					1,
					1.4134159e-14,
					1.224653e-16,
					-0,
					-1.2246469e-16,
					-4.371139e-8,
					0.99999994,
					0,
					1.4134159e-14,
					-1,
					-4.3711385e-8,
					0,
					5.2721177e-14,
					-1.9699681,
					-1.489042,
					1
				],
				"limbId": -1
			},
			"name": "bind_tail_g",
			"children": [
				13
			]
		},
		{
			"matrix": [
				1,
				0,
				4.2161270613824944e-24,
				0,
				0,
				1,
				0,
				0,
				4.2161270613824944e-24,
				0,
				0.9999998807907104,
				0,
				-7.733746233478875e-15,
				0.1797187328338623,
				0,
				1
			],
			"extras": {
				"controllerId": 370732944,
				"inverse": [
					1,
					1.4134159e-14,
					1.224653e-16,
					-0,
					-1.2246469e-16,
					-4.371139e-8,
					0.99999994,
					0,
					1.4134159e-14,
					-1,
					-4.3711385e-8,
					0,
					6.0454923e-14,
					-2.1496868,
					-1.489042,
					1
				],
				"limbId": -1
			},
			"name": "bind_tail_h",
			"children": [
				14
			]
		},
		{
			"matrix": [
				1,
				0,
				4.2161270613824944e-24,
				0,
				0,
				1,
				0,
				0,
				4.2161270613824944e-24,
				0,
				0.9999998807907104,
				0,
				-7.254057922921608e-15,
				0.19171833992004395,
				0,
				1
			],
			"extras": {
				"controllerId": 1629478662,
				"inverse": [
					1,
					1.4134159e-14,
					1.224653e-16,
					-0,
					-1.2246469e-16,
					-4.371139e-8,
					0.99999994,
					0,
					1.4134159e-14,
					-1,
					-4.3711385e-8,
					0,
					6.770898e-14,
					-2.3414052,
					-1.489042,
					1
				],
				"limbId": -1
			},
			"name": "bind_tail_i",
			"children": [
				15
			]
		},
		{
			"matrix": [
				1,
				0,
				4.2161270613824944e-24,
				0,
				0,
				1,
				0,
				0,
				4.2161270613824944e-24,
				0,
				0.9999998807907104,
				0,
				-8.64109131470947e-17,
				0.19171857833862305,
				0,
				1
			],
			"extras": {
				"controllerId": 4162227900,
				"inverse": [
					1,
					1.4134159e-14,
					1.224653e-16,
					-0,
					-1.2246469e-16,
					-4.371139e-8,
					0.99999994,
					0,
					1.4134159e-14,
					-1,
					-4.3711385e-8,
					0,
					6.779539e-14,
					-2.5331237,
					-1.489042,
					1
				],
				"limbId": -1
			},
			"name": "bind_tail_j"
		},
		{
			"matrix": [
				3.840943918476114e-8,
				-0.039608485996723175,
				0.9992152452468872,
				0,
				0.9999999403953552,
				-1.5217759141705756e-7,
				-4.447186086053989e-8,
				0,
				1.5381966989025386e-7,
				0.9992152452468872,
				0.03960847854614258,
				0,
				0,
				-5.960464477539063e-8,
				0,
				1
			],
			"extras": {
				"controllerId": 398781320,
				"inverse": [
					5.965069e-8,
					-0.99999994,
					1.1817747e-9,
					-0,
					0.9992153,
					5.965068e-8,
					0.039608438,
					0,
					-0.03960844,
					-1.1818232e-9,
					0.99921525,
					0,
					-1.5355347,
					0.21247631,
					0.75205564,
					1
				],
				"limbId": -1
			},
			"name": "bind_left_back_hip",
			"children": [
				17,
				18
			]
		},
		{
			"matrix": [
				0.8087091445922852,
				-5.9266579199857006e-8,
				0.5882085561752319,
				0,
				-2.2954214529136152e-8,
				0.9999998807907104,
				1.323167566624761e-7,
				0,
				-0.5882086157798767,
				-1.2050763587012625e-7,
				0.8087091445922852,
				0,
				-0.5808499455451965,
				-4.470348358154297e-8,
				-5.960464477539063e-8,
				1
			],
			"extras": {
				"controllerId": 753003228,
				"inverse": [
					1.0820177e-7,
					-0.99999994,
					8.637631e-8,
					-0,
					0.83137256,
					4.195534e-8,
					-0.5557153,
					0,
					0.5557153,
					1.3194028e-7,
					0.8313726,
					0,
					-0.32969666,
					0.21247648,
					1.1697482,
					1
				],
				"limbId": -1
			},
			"name": "bind_left_back_knee",
			"children": [
				19,
				20
			]
		},
		{
			"matrix": [
				1,
				5.1938659595407444e-8,
				1.1920928955078125e-7,
				0,
				-5.19386667008348e-8,
				0.9999998807907104,
				1.1818027445542612e-7,
				0,
				-1.1920928955078125e-7,
				-1.1818027445542612e-7,
				0.9999998807907104,
				0,
				-0.24920392036437988,
				-1.4901161193847656e-8,
				-5.960464477539063e-8,
				1
			],
			"extras": {
				"controllerId": 474978384,
				"inverse": [
					7.712027e-9,
					-0.99999994,
					1.1936206e-7,
					-0,
					0.9992153,
					1.2433706e-8,
					0.03960832,
					0,
					-0.039608322,
					1.1896293e-7,
					0.99921525,
					0,
					-1.2863307,
					0.21247648,
					0.7520558,
					1
				],
				"limbId": -1
			},
			"name": "bind_left_back_up_leg_twist_a"
		},
		{
			"matrix": [
				0.9999998807907104,
				-7.105427357601002e-15,
				2.9802322387695312e-8,
				0,
				-7.105427357601002e-15,
				0.9999998807907104,
				1.4210854715202004e-14,
				0,
				2.9802322387695312e-8,
				1.4210854715202004e-14,
				0.9999999403953552,
				0,
				-0.27886998653411865,
				1.4901161193847656e-8,
				0,
				1
			],
			"extras": {
				"controllerId": 1205610643,
				"inverse": [
					1.0820177e-7,
					-0.99999994,
					8.637631e-8,
					-0,
					0.83137256,
					4.195534e-8,
					-0.5557153,
					0,
					0.5557153,
					1.3194028e-7,
					0.8313726,
					0,
					-0.05082667,
					0.21247646,
					1.1697482,
					1
				],
				"limbId": -1
			},
			"name": "bind_left_back_lo_leg_twist_a"
		},
		{
			"matrix": [
				0.7893303036689758,
				-2.4396619835442834e-8,
				-0.6139686703681946,
				0,
				-6.21376941012386e-8,
				0.9999999403953552,
				-1.1962137591581268e-7,
				0,
				0.6139686107635498,
				1.3257137254640838e-7,
				0.7893303036689758,
				0,
				-0.48983991146087646,
				1.4901161193847656e-8,
				0,
				1
			],
			"extras": {
				"controllerId": 4051667885,
				"inverse": [
					5.6771203e-8,
					-1,
					2.0405644e-9,
					-0,
					0.9974195,
					5.6771203e-8,
					0.071793795,
					0,
					-0.0717938,
					-2.0405215e-9,
					0.9974194,
					0,
					-0.59178287,
					0.21247633,
					1.0216407,
					1
				],
				"limbId": -1
			},
			"name": "bind_left_back_ankle",
			"children": [
				21
			]
		},
		{
			"matrix": [
				0.0717938020825386,
				4.575191070443907e-8,
				-0.9974194169044495,
				0,
				1.539366856206925e-8,
				1,
				4.6978303913647323e-8,
				0,
				0.9974194169044495,
				-1.8726694861470605e-8,
				0.07179378718137741,
				0,
				-0.41885992884635925,
				-1.4901161193847656e-8,
				0,
				1
			],
			"extras": {
				"controllerId": 4071350662,
				"inverse": [
					-4.371139e-8,
					-1,
					7.5497894e-8,
					-0,
					2.6176143e-9,
					7.54979e-8,
					0.99999994,
					0,
					-1,
					4.371139e-8,
					2.6176108e-9,
					0,
					-1.0314193,
					0.21247637,
					-0.09912922,
					1
				],
				"limbId": -1
			},
			"name": "bind_left_back_ball",
			"children": [
				22
			]
		},
		{
			"matrix": [
				0.9992629289627075,
				2.8982007904687634e-9,
				0.03838780149817467,
				0,
				-2.898193685041406e-9,
				1,
				-5.564958563408773e-11,
				0,
				-0.03838780149817467,
				-5.564049221362666e-11,
				0.999262809753418,
				0,
				-0.1274915337562561,
				-5.960464477539063e-8,
				-0.015247568488121033,
				1
			],
			"extras": {
				"controllerId": 3515708019,
				"inverse": [
					-4.367917e-8,
					-1,
					7.7175876e-8,
					-0,
					0.03838781,
					7.544225e-8,
					0.99926287,
					0,
					-0.9992629,
					4.6609582e-8,
					0.038387805,
					0,
					-0.9064815,
					0.21247643,
					-0.049120028,
					1
				],
				"limbId": -1
			},
			"name": "bind_left_back_toes",
			"children": [
				23,
				24,
				25,
				26
			]
		},
		{
			"matrix": [
				0.9495350122451782,
				-0.31366097927093506,
				1.862645149230957e-8,
				0,
				0.31366097927093506,
				0.9495349526405334,
				-9.12696123123169e-8,
				0,
				7.450580596923828e-9,
				9.300836012471336e-8,
				0.9999998807907104,
				0,
				-0.0023723244667053223,
				0.0679398626089096,
				-0.0021094568073749542,
				1
			],
			"extras": {
				"controllerId": 4271320265,
				"inverse": [
					0.31366095,
					-0.94953495,
					-1.5832486e-8,
					-0,
					0.036450565,
					0.012040738,
					0.99926287,
					0,
					-0.94883513,
					-0.31342974,
					0.038387798,
					0,
					-0.9038188,
					-0.14634126,
					-0.047010567,
					1
				],
				"limbId": -1
			},
			"name": "bind_left_back_toe_index",
			"children": [
				27
			]
		},
		{
			"matrix": [
				0.9962098598480225,
				-0.08698183298110962,
				1.1175870895385742e-8,
				0,
				0.08698183298110962,
				0.9962098598480225,
				-5.564652383327484e-8,
				0,
				-3.725290298461914e-9,
				5.645395617648319e-8,
				0.9999999403953552,
				0,
				-0.0023723244667053223,
				0.015506207942962646,
				-0.002109464257955551,
				1
			],
			"extras": {
				"controllerId": 188855302,
				"inverse": [
					0.08698179,
					-0.99620986,
					2.0721929e-8,
					-0,
					0.038242314,
					0.0033390613,
					0.9992629,
					0,
					-0.99547553,
					-0.086917676,
					0.038387813,
					0,
					-0.91781527,
					0.1175826,
					-0.047010545,
					1
				],
				"limbId": -1
			},
			"name": "bind_left_back_toe_middle",
			"children": [
				28
			]
		},
		{
			"matrix": [
				0.9804433584213257,
				0.1968017816543579,
				-7.450580596923828e-9,
				0,
				-0.1968017816543579,
				0.9804432392120361,
				-3.3527612686157227e-8,
				0,
				3.725290298461914e-9,
				3.5266364051267374e-8,
				0.9999998807907104,
				0,
				-0.0023723244667053223,
				-0.021005108952522278,
				-0.002109471708536148,
				1
			],
			"extras": {
				"controllerId": 3672866939,
				"inverse": [
					-0.19680183,
					-0.98044324,
					4.1909512e-8,
					-0,
					0.037637074,
					-0.0075547486,
					0.99926287,
					0,
					-0.97972065,
					0.19665676,
					0.0383878,
					0,
					-0.84047824,
					0.4068457,
					-0.047010556,
					1
				],
				"limbId": -1
			},
			"name": "bind_left_back_toe_ring",
			"children": [
				29
			]
		},
		{
			"matrix": [
				0.765853762626648,
				0.643014669418335,
				-3.3527612686157227e-8,
				0,
				-0.6430147290229797,
				0.7658539414405823,
				-5.774199962615967e-8,
				0,
				-1.1175870895385742e-8,
				6.600000546086449e-8,
				0.9999998807907104,
				0,
				-0.0023723244667053223,
				-0.06155005097389221,
				-0.0021094419062137604,
				1
			],
			"extras": {
				"controllerId": 3936581965,
				"inverse": [
					-0.6430147,
					-0.7658539,
					1.117587e-8,
					-0,
					0.029399464,
					-0.024683926,
					0.99926287,
					0,
					-0.76528925,
					0.6425408,
					0.038387816,
					0,
					-0.5162124,
					0.7912198,
					-0.04701056,
					1
				],
				"limbId": -1
			},
			"name": "bind_left_back_toe_pinky",
			"children": [
				30
			]
		},
		{
			"matrix": [
				0.9999999403953552,
				0,
				0,
				0,
				0,
				0.9999998211860657,
				0,
				0,
				0,
				0,
				0.9999998807907104,
				0,
				-0.14159733057022095,
				-2.9802322387695312e-8,
				3.725290298461914e-9,
				1
			],
			"extras": {
				"controllerId": 327219077,
				"inverse": [
					0.31366095,
					-0.94953495,
					-1.5832486e-8,
					-0,
					0.036450565,
					0.012040738,
					0.99926287,
					0,
					-0.94883513,
					-0.31342974,
					0.038387798,
					0,
					-0.76222146,
					-0.14634123,
					-0.047010567,
					1
				],
				"limbId": -1
			},
			"name": "bind_left_back_toe_index_end"
		},
		{
			"matrix": [
				0.9999998211860657,
				0,
				0,
				0,
				0,
				0.9999999403953552,
				0,
				0,
				0,
				0,
				1,
				0,
				-0.16200721263885498,
				0,
				1.1175870895385742e-8,
				1
			],
			"extras": {
				"controllerId": 3558573207,
				"inverse": [
					0.08698179,
					-0.99620986,
					2.0721929e-8,
					-0,
					0.038242314,
					0.0033390613,
					0.9992629,
					0,
					-0.99547553,
					-0.086917676,
					0.038387813,
					0,
					-0.7558081,
					0.1175826,
					-0.047010556,
					1
				],
				"limbId": -1
			},
			"name": "bind_left_back_toe_middle_end"
		},
		{
			"matrix": [
				1.0000001192092896,
				-1.4901161193847656e-8,
				3.725290298461914e-9,
				0,
				-1.4901161193847656e-8,
				0.9999999403953552,
				0,
				0,
				3.725290298461914e-9,
				0,
				0.9999998807907104,
				0,
				-0.14651751518249512,
				0,
				0,
				1
			],
			"extras": {
				"controllerId": 3406825403,
				"inverse": [
					-0.19680183,
					-0.98044324,
					4.1909512e-8,
					-0,
					0.037637074,
					-0.0075547486,
					0.99926287,
					0,
					-0.97972065,
					0.19665676,
					0.0383878,
					0,
					-0.6939607,
					0.4068457,
					-0.047010563,
					1
				],
				"limbId": -1
			},
			"name": "bind_left_back_toe_ring_end"
		},
		{
			"matrix": [
				0.9999998807907104,
				5.960464477539063e-8,
				1.862645149230957e-9,
				0,
				5.960464477539063e-8,
				1.0000001192092896,
				0,
				0,
				1.862645149230957e-9,
				0,
				0.9999998807907104,
				0,
				-0.11672693490982056,
				0,
				-3.725290298461914e-9,
				1
			],
			"extras": {
				"controllerId": 3124501816,
				"inverse": [
					-0.6430147,
					-0.7658539,
					1.117587e-8,
					-0,
					0.029399464,
					-0.024683926,
					0.99926287,
					0,
					-0.76528925,
					0.6425408,
					0.038387816,
					0,
					-0.3994855,
					0.7912198,
					-0.047010556,
					1
				],
				"limbId": -1
			},
			"name": "bind_left_back_toe_pinky_end"
		},
		{
			"matrix": [
				5.154632276571647e-7,
				-0.03960827738046646,
				0.9992152452468872,
				0,
				0.9999999403953552,
				-5.338964683687664e-7,
				-5.370312692321022e-7,
				0,
				5.547484533963143e-7,
				0.9992152452468872,
				0.039608269929885864,
				0,
				4.470348358154297e-8,
				0,
				3.5762786865234375e-7,
				1
			],
			"extras": {
				"controllerId": 1471597896,
				"inverse": [
					-3.1336222e-7,
					-0.99999994,
					-3.956229e-7,
					-0,
					-0.9992153,
					3.2878626e-7,
					-0.03960832,
					0,
					0.039608322,
					3.8290068e-7,
					-0.99921525,
					0,
					1.5355322,
					-0.21247621,
					-0.75205624,
					1
				],
				"limbId": -1
			},
			"name": "bind_right_back_hip",
			"children": [
				32,
				33
			]
		},
		{
			"matrix": [
				0.8087093830108643,
				-6.435804777993326e-8,
				0.5882084965705872,
				0,
				1.8535413204290307e-8,
				0.9999999403953552,
				8.392984796046221e-8,
				0,
				-0.5882084965705872,
				-5.6972169204527745e-8,
				0.8087092638015747,
				0,
				0.5808473229408264,
				-1.4901161193847656e-8,
				-3.5762786865234375e-7,
				1
			],
			"extras": {
				"controllerId": 3083164234,
				"inverse": [
					-4.2176967e-7,
					-1,
					-7.864944e-8,
					-0,
					-0.8313727,
					3.0694108e-7,
					0.55571526,
					0,
					-0.5557153,
					2.9977087e-7,
					-0.8313726,
					0,
					0.32969683,
					-0.21247625,
					-1.1697483,
					1
				],
				"limbId": -1
			},
			"name": "bind_right_back_knee",
			"children": [
				34,
				35
			]
		},
		{
			"matrix": [
				1,
				-1.88877198326054e-8,
				1.1920928955078125e-7,
				0,
				1.8887662989186538e-8,
				0.9999998807907104,
				1.1958348977714195e-7,
				0,
				-1.1920928955078125e-7,
				-1.1958351819885138e-7,
				0.9999998807907104,
				0,
				0.2492053508758545,
				1.4901161193847656e-8,
				-2.384185791015625e-7,
				1
			],
			"extras": {
				"controllerId": 141422089,
				"inverse": [
					-2.9447457e-7,
					-0.99999994,
					-2.7603934e-7,
					-0,
					-0.9992153,
					3.051769e-7,
					-0.0396082,
					0,
					0.039608203,
					2.6415913e-7,
					-0.99921525,
					0,
					1.2863269,
					-0.2124763,
					-0.7520561,
					1
				],
				"limbId": -1
			},
			"name": "bind_right_back_up_leg_twist_a"
		},
		{
			"matrix": [
				1,
				-1.4210854715202004e-14,
				2.9802322387695312e-8,
				0,
				-1.4210854715202004e-14,
				1,
				-2.842170943040401e-14,
				0,
				2.9802322387695312e-8,
				-2.842170943040401e-14,
				0.9999998807907104,
				0,
				0.27886998653411865,
				1.4901161193847656e-8,
				-2.384185791015625e-7,
				1
			],
			"extras": {
				"controllerId": 1409179338,
				"inverse": [
					-4.2176967e-7,
					-1,
					-7.864944e-8,
					-0,
					-0.8313727,
					3.0694108e-7,
					0.55571526,
					0,
					-0.5557153,
					2.9977087e-7,
					-0.8313726,
					0,
					0.050826848,
					-0.21247627,
					-1.1697481,
					1
				],
				"limbId": -1
			},
			"name": "bind_right_back_lo_leg_twist_a"
		},
		{
			"matrix": [
				0.7893304228782654,
				-0.0000013512999430531636,
				-0.6139686107635498,
				0,
				0.000001048177864504396,
				1,
				-8.533681921107927e-7,
				0,
				0.6139686107635498,
				3.0041150012039e-8,
				0.7893303036689758,
				0,
				0.48984020948410034,
				1.4901161193847656e-8,
				-7.152557373046875e-7,
				1
			],
			"extras": {
				"controllerId": 3901266284,
				"inverse": [
					0.0000010666727,
					-1,
					-3.510749e-7,
					-0,
					-0.9974195,
					-0.0000010387151,
					-0.071793795,
					0,
					0.0717938,
					4.2674947e-7,
					-0.9974194,
					0,
					0.5917827,
					-0.21247543,
					-1.0216403,
					1
				],
				"limbId": -1
			},
			"name": "bind_right_back_ankle",
			"children": [
				36
			]
		},
		{
			"matrix": [
				0.0717938095331192,
				4.704608613792516e-7,
				-0.9974194169044495,
				0,
				-0.0000010262123169013648,
				1,
				3.9781170357855444e-7,
				0,
				0.9974194169044495,
				9.950036883310531e-7,
				0.07179379463195801,
				0,
				0.4188595116138458,
				1.4901161193847656e-8,
				0.0000011920928955078125,
				1
			],
			"extras": {
				"controllerId": 1771000080,
				"inverse": [
					-4.371139e-8,
					-1,
					4.3711385e-8,
					-0,
					-4.7854005e-9,
					-4.371139e-8,
					-0.99999994,
					0,
					1,
					-4.371139e-8,
					-4.7853983e-9,
					0,
					1.03142,
					-0.21247604,
					0.0991292,
					1
				],
				"limbId": -1
			},
			"name": "bind_right_back_ball",
			"children": [
				37
			]
		},
		{
			"matrix": [
				0.9992629289627075,
				1.6779857503479434e-9,
				0.038387805223464966,
				0,
				-1.6779857503479434e-9,
				1,
				-3.221934177788377e-11,
				0,
				-0.038387805223464966,
				-3.221733990699249e-11,
				0.999262809753418,
				0,
				0.1274920105934143,
				0,
				0.015247613191604614,
				1
			],
			"extras": {
				"controllerId": 1252639461,
				"inverse": [
					-4.367917e-8,
					-1,
					4.538937e-8,
					-0,
					-0.038387813,
					-4.367917e-8,
					-0.99926287,
					0,
					0.9992629,
					-4.5389374e-8,
					-0.03838781,
					0,
					0.90648174,
					-0.21247604,
					0.049119957,
					1
				],
				"limbId": -1
			},
			"name": "bind_right_back_toes",
			"children": [
				38,
				39,
				40,
				41
			]
		},
		{
			"matrix": [
				0.9495350122451782,
				-0.31366097927093506,
				2.2351741790771484e-8,
				0,
				0.31366097927093506,
				0.9495349526405334,
				-9.406358003616333e-8,
				0,
				7.450580596923828e-9,
				9.754344176826635e-8,
				0.9999998807907104,
				0,
				0.0023728013038635254,
				-0.06793901324272156,
				0.002109348773956299,
				1
			],
			"extras": {
				"controllerId": 273812750,
				"inverse": [
					0.31366095,
					-0.94953495,
					-5.215407e-8,
					-0,
					-0.03645058,
					-0.012040705,
					-0.99926287,
					0,
					0.94883513,
					0.31342974,
					-0.0383878,
					0,
					0.90381867,
					0.14634073,
					0.0470106,
					1
				],
				"limbId": -1
			},
			"name": "bind_right_back_toe_index",
			"children": [
				42
			]
		},
		{
			"matrix": [
				0.9962098598480225,
				-0.08698183298110962,
				7.450580596923828e-9,
				0,
				0.08698183298110962,
				0.9962098598480225,
				-5.634501576423645e-8,
				0,
				0,
				5.703090977249303e-8,
				0.9999999403953552,
				0,
				0.0023728013038635254,
				-0.015505999326705933,
				0.0021093636751174927,
				1
			],
			"extras": {
				"controllerId": 246359604,
				"inverse": [
					0.08698179,
					-0.99620986,
					-1.1641534e-8,
					-0,
					-0.038242318,
					-0.0033390292,
					-0.9992629,
					0,
					0.99547553,
					0.086917676,
					-0.038387813,
					0,
					0.917815,
					-0.11758244,
					0.04701058,
					1
				],
				"limbId": -1
			},
			"name": "bind_right_back_toe_middle",
			"children": [
				43
			]
		},
		{
			"matrix": [
				0.9804433584213257,
				0.1968017816543579,
				-7.450580596923828e-9,
				0,
				-0.1968017816543579,
				0.9804432392120361,
				-3.3993273973464966e-8,
				0,
				7.450580596923828e-9,
				3.561048345090967e-8,
				0.9999998807907104,
				0,
				0.0023728609085083008,
				0.021005988121032715,
				0.0021093785762786865,
				1
			],
			"extras": {
				"controllerId": 296446841,
				"inverse": [
					-0.19680183,
					-0.98044324,
					9.778886e-9,
					-0,
					-0.03763707,
					0.00755478,
					-0.99926287,
					0,
					0.97972065,
					-0.19665676,
					-0.0383878,
					0,
					0.8404778,
					-0.4068461,
					0.047010582,
					1
				],
				"limbId": -1
			},
			"name": "bind_right_back_toe_ring",
			"children": [
				44
			]
		},
		{
			"matrix": [
				0.765853762626648,
				0.643014669418335,
				-3.725290298461914e-8,
				0,
				-0.6430147290229797,
				0.7658538818359375,
				-6.51925802230835e-8,
				0,
				-1.4901161193847656e-8,
				7.332904772283655e-8,
				0.9999998807907104,
				0,
				0.0023726820945739746,
				0.061550021171569824,
				0.002109359949827194,
				1
			],
			"extras": {
				"controllerId": 73816202,
				"inverse": [
					-0.6430147,
					-0.7658539,
					-2.7939675e-8,
					-0,
					-0.029399442,
					0.02468396,
					-0.99926287,
					0,
					0.76528925,
					-0.6425408,
					-0.038387824,
					0,
					0.5162125,
					-0.79121935,
					0.04701056,
					1
				],
				"limbId": -1
			},
			"name": "bind_right_back_toe_pinky",
			"children": [
				45
			]
		},
		{
			"matrix": [
				0.9999999403953552,
				0,
				0,
				0,
				0,
				0.9999998211860657,
				9.313225746154785e-10,
				0,
				0,
				9.313225746154785e-10,
				0.9999998807907104,
				0,
				0.14159679412841797,
				-6.258487701416016e-7,
				2.9802322387695312e-8,
				1
			],
			"extras": {
				"controllerId": 816505241,
				"inverse": [
					0.31366095,
					-0.94953495,
					-5.215407e-8,
					-0,
					-0.03645058,
					-0.012040705,
					-0.99926287,
					0,
					0.94883513,
					0.31342974,
					-0.0383878,
					0,
					0.7622219,
					0.14634135,
					0.047010574,
					1
				],
				"limbId": -1
			},
			"name": "bind_right_back_toe_index_end"
		},
		{
			"matrix": [
				0.9999998211860657,
				0,
				3.725290298461914e-9,
				0,
				0,
				0.9999999403953552,
				-1.1944212019443512e-7,
				0,
				3.725290298461914e-9,
				1.19674950838089e-7,
				1,
				0,
				0.1620069146156311,
				6.332993507385254e-7,
				7.450580596923828e-8,
				1
			],
			"extras": {
				"controllerId": 3225023182,
				"inverse": [
					0.08698179,
					-0.99620986,
					-1.30618e-7,
					-0,
					-0.038242318,
					-0.0033389097,
					-0.9992629,
					0,
					0.99547553,
					0.08691768,
					-0.0383878,
					0,
					0.7558081,
					-0.11758308,
					0.04701049,
					1
				],
				"limbId": -1
			},
			"name": "bind_right_back_toe_middle_end"
		},
		{
			"matrix": [
				1.0000001192092896,
				1.4901161193847656e-8,
				3.725290298461914e-9,
				0,
				-4.470348358154297e-8,
				0.9999999403953552,
				-1.1827796697616577e-7,
				0,
				3.725290298461914e-9,
				1.1781230568885803e-7,
				0.9999998807907104,
				0,
				0.1465168595314026,
				-8.940696716308594e-7,
				2.9802322387695312e-8,
				1
			],
			"extras": {
				"controllerId": 945923148,
				"inverse": [
					-0.19680186,
					-0.98044324,
					-1.05239444e-7,
					-0,
					-0.03763707,
					0.0075548994,
					-0.99926287,
					0,
					0.97972065,
					-0.1966568,
					-0.038387828,
					0,
					0.69396096,
					-0.4068453,
					0.047010504,
					1
				],
				"limbId": -1
			},
			"name": "bind_right_back_toe_ring_end"
		},
		{
			"matrix": [
				0.9999998807907104,
				5.960464477539063e-8,
				0,
				0,
				5.960464477539063e-8,
				1.0000001192092896,
				0,
				0,
				0,
				0,
				0.9999998807907104,
				0,
				0.11672759056091309,
				5.960464477539062e-7,
				-1.862645149230957e-8,
				1
			],
			"extras": {
				"controllerId": 2568358692,
				"inverse": [
					-0.6430147,
					-0.7658539,
					-2.7939675e-8,
					-0,
					-0.029399442,
					0.02468396,
					-0.99926287,
					0,
					0.76528925,
					-0.6425408,
					-0.038387824,
					0,
					0.3994849,
					-0.79121995,
					0.04701058,
					1
				],
				"limbId": -1
			},
			"name": "bind_right_back_toe_pinky_end"
		},
		{
			"matrix": [
				1,
				0,
				0,
				0,
				0,
				1,
				0,
				0,
				0,
				0,
				0.9999998807907104,
				0,
				2.159888978781055e-8,
				0.24706250429153442,
				0,
				1
			],
			"extras": {
				"controllerId": 108122785,
				"inverse": [
					-1,
					8.742278e-8,
					3.9438354e-15,
					-0,
					1.2246487e-16,
					-4.371139e-8,
					0.99999994,
					0,
					8.742278e-8,
					1,
					4.3711385e-8,
					0,
					3.7648874e-8,
					0.43065298,
					-1.4305642,
					1
				],
				"limbId": -1
			},
			"name": "bind_spine_a",
			"children": [
				47
			]
		},
		{
			"matrix": [
				1,
				0,
				0,
				0,
				0,
				1,
				0,
				0,
				0,
				0,
				0.9999998807907104,
				0,
				3.6717565876642766e-8,
				0.41999998688697815,
				0,
				1
			],
			"extras": {
				"controllerId": 2675475227,
				"inverse": [
					-1,
					8.742278e-8,
					3.9438354e-15,
					-0,
					1.2246487e-16,
					-4.371139e-8,
					0.99999994,
					0,
					8.742278e-8,
					1,
					4.3711385e-8,
					0,
					9.3130803e-10,
					0.010652989,
					-1.4305642,
					1
				],
				"limbId": -1
			},
			"name": "bind_spine_b",
			"children": [
				48
			]
		},
		{
			"matrix": [
				1,
				0,
				0,
				0,
				0,
				1,
				0,
				0,
				0,
				0,
				0.9999998807907104,
				0,
				3.6717569429356445e-8,
				0.41999998688697815,
				0,
				1
			],
			"extras": {
				"controllerId": 3900683149,
				"inverse": [
					-1,
					8.742278e-8,
					3.9438354e-15,
					-0,
					1.2246487e-16,
					-4.371139e-8,
					0.99999994,
					0,
					8.742278e-8,
					1,
					4.3711385e-8,
					0,
					-3.578626e-8,
					-0.409347,
					-1.4305642,
					1
				],
				"limbId": -1
			},
			"name": "bind_spine_c",
			"children": [
				49,
				50,
				51,
				52
			]
		},
		{
			"matrix": [
				1,
				0,
				0,
				0,
				0,
				1,
				0,
				0,
				0,
				0,
				0.9999998807907104,
				0,
				-0.13414640724658966,
				0.1914570927619934,
				0.16123557090759277,
				1
			],
			"extras": {
				"controllerId": 1391165511,
				"inverse": [
					-1,
					8.742278e-8,
					3.9438354e-15,
					-0,
					1.2246487e-16,
					-4.371139e-8,
					0.99999994,
					0,
					8.742278e-8,
					1,
					4.3711385e-8,
					0,
					0.13414638,
					-0.6008041,
					-1.5917997,
					1
				],
				"limbId": -1
			},
			"name": "bind_left_scapula",
			"children": [
				53
			]
		},
		{
			"matrix": [
				1,
				0,
				-1.22464870546974e-16,
				0,
				0,
				0.854458749294281,
				0.5195191502571106,
				0,
				0,
				-0.5195192098617554,
				0.8544586896896362,
				0,
				2.6052017432220964e-8,
				0.29800039529800415,
				0,
				1
			],
			"extras": {
				"controllerId": 1392191208,
				"inverse": [
					-1,
					7.469916e-8,
					-4.5417806e-8,
					-0,
					-0,
					0.51951915,
					0.85445875,
					0,
					8.742278e-8,
					0.85445875,
					-0.51951915,
					0,
					-6.183828e-8,
					-1.3476048,
					-0.8548777,
					1
				],
				"limbId": -1
			},
			"name": "bind_neck_a",
			"children": [
				68
			]
		},
		{
			"matrix": [
				1,
				0,
				0,
				0,
				0,
				-1,
				-8.74227694680485e-8,
				0,
				0,
				8.74227694680485e-8,
				-0.9999998807907104,
				0,
				0.13414603471755981,
				0.19145691394805908,
				0.16123557090759277,
				1
			],
			"extras": {
				"controllerId": 4291176109,
				"inverse": [
					-1,
					-8.742278e-8,
					3.6989056e-15,
					-0,
					1.2246487e-16,
					-4.371139e-8,
					-0.99999994,
					0,
					8.742278e-8,
					-1,
					4.3711385e-8,
					0,
					-0.13414606,
					0.60080403,
					1.5917997,
					1
				],
				"limbId": -1
			},
			"name": "bind_right_scapula",
			"children": [
				77
			]
		},
		{
			"matrix": [
				-1,
				8.742277657347586e-8,
				3.698906059782436e-15,
				0,
				-1.2246459261428818e-16,
				-4.371138828673793e-8,
				0.9999999403953552,
				0,
				8.74227694680485e-8,
				0.9999999403953552,
				4.371138118131057e-8,
				0,
				2.6052017432220964e-8,
				0.29800039529800415,
				0,
				1
			],
			"extras": {
				"controllerId": 1559833762,
				"inverse": [
					1,
					2.4492937e-16,
					-2.4492934e-16,
					-0,
					-2.4492937e-16,
					1,
					1.1102229e-15,
					0,
					2.4492937e-16,
					-1.110223e-15,
					0.99999994,
					0,
					1.7519362e-16,
					-1.4305643,
					-0.7073474,
					1
				],
				"limbId": -1
			},
			"name": "reference_look"
		},
		{
			"matrix": [
				4.197610792289197e-8,
				0.32010045647621155,
				0.9473835229873657,
				0,
				1,
				-8.972271103857565e-8,
				-1.3992039527011002e-8,
				0,
				8.052296607274911e-8,
				0.9473835229873657,
				-0.3201003968715668,
				0,
				-0.09925603866577148,
				0.11507987976074219,
				-0.2796134948730469,
				1
			],
			"extras": {
				"controllerId": 2361881923,
				"inverse": [
					-1.3992036e-8,
					-1,
					2.2999374e-9,
					-0,
					0.9473836,
					-1.3992037e-8,
					-0.32010046,
					0,
					0.3201005,
					-2.2999345e-9,
					0.9473835,
					0,
					-1.4722986,
					0.23340249,
					-0.2581853,
					1
				],
				"limbId": -1
			},
			"name": "bind_left_front_shoulder",
			"children": [
				54,
				55
			]
		},
		{
			"matrix": [
				1,
				-3.815895155412363e-8,
				0,
				0,
				3.815895510683731e-8,
				1,
				1.129369167074401e-7,
				0,
				0,
				-1.129369167074401e-7,
				0.9999998807907104,
				0,
				-0.2633160352706909,
				-1.4901161193847656e-8,
				-2.9802322387695312e-8,
				1
			],
			"extras": {
				"controllerId": 1538373544,
				"inverse": [
					2.4166916e-8,
					-1,
					1.1523685e-7,
					-0,
					0.9473836,
					-1.3992033e-8,
					-0.32010046,
					0,
					0.3201005,
					1.16909355e-7,
					0.9473835,
					0,
					-1.2089826,
					0.23340243,
					-0.25818527,
					1
				],
				"limbId": -1
			},
			"name": "bind_left_front_up_arm_twist_a"
		},
		{
			"matrix": [
				0.9298418164253235,
				-1.162930374221105e-8,
				-0.36795955896377563,
				0,
				1.1900048946245079e-8,
				0.9999999403953552,
				-1.5331578229194065e-9,
				0,
				0.36795955896377563,
				-2.9531423972883886e-9,
				0.9298416972160339,
				0,
				-0.49304986000061035,
				-1.4901161193847656e-8,
				-5.960464477539063e-8,
				1
			],
			"extras": {
				"controllerId": 2413680710,
				"inverse": [
					-2.2273605e-9,
					-0.99999994,
					-5.6783033e-11,
					-0,
					0.9987009,
					-2.2273603e-9,
					0.05095606,
					0,
					-0.050956063,
					5.678825e-11,
					0.99870086,
					0,
					-0.81554466,
					0.23340248,
					-0.60039544,
					1
				],
				"limbId": -1
			},
			"name": "bind_left_front_elbow",
			"children": [
				56,
				57
			]
		},
		{
			"matrix": [
				1,
				-2.42977922226828e-8,
				-1.1920928955078125e-7,
				0,
				2.4297804657180677e-8,
				0.9999998807907104,
				1.1982871228610747e-7,
				0,
				1.1920928955078125e-7,
				-1.1982871228610747e-7,
				0.9999998807907104,
				0,
				-0.307512104511261,
				-2.9802322387695312e-8,
				-5.960464477539063e-8,
				1
			],
			"extras": {
				"controllerId": 2230123,
				"inverse": [
					2.2070434e-8,
					-0.99999994,
					1.1977194e-7,
					-0,
					0.9987009,
					2.814488e-8,
					0.05095618,
					0,
					-0.050956182,
					1.1849172e-7,
					0.99870086,
					0,
					-0.5080325,
					0.23340242,
					-0.60039544,
					1
				],
				"limbId": -1
			},
			"name": "bind_left_front_lo_arm_twist_a"
		},
		{
			"matrix": [
				1,
				-2.6524548616541077e-12,
				0.000060673803091049194,
				0,
				2.6522631747100123e-12,
				0.9999999403953552,
				-3.5284275501368256e-15,
				0,
				-0.000060673803091049194,
				3.694961003830599e-15,
				0.9999999403953552,
				0,
				-0.5761440396308899,
				-4.470348358154297e-8,
				0,
				1
			],
			"extras": {
				"controllerId": 1443946254,
				"inverse": [
					-2.2247117e-9,
					-1,
					-5.6651583e-11,
					-0,
					0.998704,
					-2.2247117e-9,
					0.050895464,
					0,
					-0.050895467,
					5.6649577e-11,
					0.99870396,
					0,
					-0.23943709,
					0.23340254,
					-0.60038084,
					1
				],
				"limbId": -1
			},
			"name": "bind_left_front_wrist",
			"children": [
				58
			]
		},
		{
			"matrix": [
				0.05089545622467995,
				4.3654740267129455e-8,
				-0.9987039566040039,
				0,
				-4.3654740267129455e-8,
				1,
				4.1486675428359376e-8,
				0,
				0.9987039566040039,
				4.14866718756457e-8,
				0.05089544877409935,
				0,
				-0.18222005665302277,
				4.470348358154297e-8,
				5.960464477539063e-8,
				1
			],
			"extras": {
				"controllerId": 631840339,
				"inverse": [
					-4.371139e-8,
					-1,
					-4.3711385e-8,
					-0,
					-1.1574519e-8,
					-4.371139e-8,
					0.99999994,
					0,
					-1,
					4.371139e-8,
					-1.15745165e-8,
					0,
					0.5966907,
					0.23340246,
					-0.087699525,
					1
				],
				"limbId": -1
			},
			"name": "bind_left_front_ball",
			"children": [
				59
			]
		},
		{
			"matrix": [
				0.995429515838623,
				4.1743675183170126e-9,
				-0.09549827873706818,
				0,
				-4.174363965603334e-9,
				0.9999999403953552,
				1.9977564047479746e-10,
				0,
				0.09549829363822937,
				1.9978019238919842e-10,
				0.995429515838623,
				0,
				-0.09443539381027222,
				-2.9802322387695312e-8,
				-0.01615910977125168,
				1
			],
			"extras": {
				"controllerId": 110071206,
				"inverse": [
					-4.351161e-8,
					-0.99999994,
					-4.7885752e-8,
					-0,
					-0.0954983,
					-4.351161e-8,
					0.9954296,
					0,
					-0.9954295,
					4.788575e-8,
					-0.09549831,
					0,
					0.6947993,
					0.23340248,
					-0.005212076,
					1
				],
				"limbId": -1
			},
			"name": "bind_left_front_toes",
			"children": [
				60,
				61,
				62,
				63
			]
		},
		{
			"matrix": [
				0.9857034087181091,
				-0.16848942637443542,
				0,
				-0,
				0.16848941147327423,
				0.9857034087181091,
				5.21540641784668e-8,
				0,
				0,
				-5.16110389980895e-8,
				0.9999999403953552,
				0,
				-0.00037807226181030273,
				0.06257081031799316,
				0.0016909092664718628,
				1
			],
			"extras": {
				"controllerId": 2893700519,
				"inverse": [
					0.1684894,
					-0.98570347,
					3.72529e-9,
					-0,
					-0.09413301,
					-0.016090447,
					0.9954296,
					0,
					-0.98119843,
					-0.16771932,
					-0.0954983,
					0,
					0.65645546,
					0.28551942,
					-0.006903,
					1
				],
				"limbId": -1
			},
			"name": "bind_left_front_toe_index",
			"children": [
				64
			]
		},
		{
			"matrix": [
				0.9989385604858398,
				-0.04606045410037041,
				2.2351741790771484e-8,
				-0,
				0.04606045410037041,
				0.9989386200904846,
				1.210719347000122e-8,
				0,
				-7.450580596923828e-9,
				-1.1098510555029861e-8,
				0.9999999403953552,
				0,
				-0.0003781318664550781,
				0.02632369101047516,
				0.0016909167170524597,
				1
			],
			"extras": {
				"controllerId": 2702775592,
				"inverse": [
					0.046060413,
					-0.9989387,
					-3.678724e-8,
					-0,
					-0.095396936,
					-0.0043987273,
					0.9954296,
					0,
					-0.9943731,
					-0.045849893,
					-0.09549829,
					0,
					0.68490154,
					0.23887922,
					-0.0069030076,
					1
				],
				"limbId": -1
			},
			"name": "bind_left_front_toe_middle",
			"children": [
				65
			]
		},
		{
			"matrix": [
				0.9994898438453674,
				0.03193403035402298,
				1.4901161193847656e-8,
				0,
				-0.03193403035402298,
				0.9994899034500122,
				4.0279701352119446e-8,
				0,
				0,
				-4.0668002299071304e-8,
				1,
				0,
				-0.0003781318664550781,
				-0.03387771546840668,
				0.0016909018158912659,
				1
			],
			"extras": {
				"controllerId": 1601755336,
				"inverse": [
					-0.03193408,
					-0.99948996,
					-7.217751e-9,
					-0,
					-0.09544959,
					0.0030496428,
					0.99542964,
					0,
					-0.99492186,
					0.031788126,
					-0.09549831,
					0,
					0.70335823,
					0.24494408,
					-0.006903,
					1
				],
				"limbId": -1
			},
			"name": "bind_left_front_toe_ring",
			"children": [
				66
			]
		},
		{
			"matrix": [
				0.9974281787872314,
				0.07167145609855652,
				-7.450580596923828e-9,
				0,
				-0.07167145609855652,
				0.9974281787872314,
				1.7276033759117126e-7,
				0,
				2.9802322387695312e-8,
				-1.7175165112348623e-7,
				0.9999999403953552,
				0,
				-0.00037795305252075195,
				-0.08393408358097076,
				0.0016909241676330566,
				1
			],
			"extras": {
				"controllerId": 3092121635,
				"inverse": [
					-0.0716715,
					-0.99742824,
					1.2386592e-7,
					-0,
					-0.095252715,
					0.0068446314,
					0.9954296,
					0,
					-0.99286956,
					0.07134392,
					-0.09549833,
					0,
					0.7161335,
					0.26669613,
					-0.0069030374,
					1
				],
				"limbId": -1
			},
			"name": "bind_left_front_toe_pinky",
			"children": [
				67
			]
		},
		{
			"matrix": [
				1.0000001192092896,
				0,
				0,
				-0,
				0,
				1,
				0,
				0,
				0,
				0,
				0.9999999403953552,
				0,
				-0.16803652048110962,
				-2.9802322387695312e-8,
				-7.450580596923828e-9,
				1
			],
			"extras": {
				"controllerId": 4093626539,
				"inverse": [
					0.1684894,
					-0.98570347,
					3.72529e-9,
					-0,
					-0.09413301,
					-0.016090447,
					0.9954296,
					0,
					-0.98119843,
					-0.16771932,
					-0.0954983,
					0,
					0.824492,
					0.28551945,
					-0.0069029927,
					1
				],
				"limbId": -1
			},
			"name": "bind_left_front_toe_index_end"
		},
		{
			"matrix": [
				0.9999999403953552,
				-7.450580596923828e-9,
				7.450580596923828e-9,
				-0,
				-7.450580596923828e-9,
				1.0000001192092896,
				0,
				0,
				7.450580596923828e-9,
				0,
				0.9999999403953552,
				0,
				-0.1869099736213684,
				1.4901161193847656e-8,
				7.450580596923828e-9,
				1
			],
			"extras": {
				"controllerId": 137229927,
				"inverse": [
					0.046060413,
					-0.9989387,
					-3.678724e-8,
					-0,
					-0.095396936,
					-0.0043987273,
					0.9954296,
					0,
					-0.9943731,
					-0.045849893,
					-0.09549829,
					0,
					0.8718115,
					0.23887919,
					-0.006903015,
					1
				],
				"limbId": -1
			},
			"name": "bind_left_front_toe_middle_end"
		},
		{
			"matrix": [
				0.9999999403953552,
				3.725290298461914e-9,
				7.450580596923828e-9,
				0,
				3.725290298461914e-9,
				0.9999999403953552,
				-2.3283064365386963e-10,
				0,
				7.450580596923828e-9,
				-2.3283064365386963e-10,
				1,
				0,
				-0.17669153213500977,
				0,
				0,
				1
			],
			"extras": {
				"controllerId": 1640380337,
				"inverse": [
					-0.03193408,
					-0.99948996,
					-7.217751e-9,
					-0,
					-0.09544959,
					0.0030496428,
					0.99542964,
					0,
					-0.99492186,
					0.031788126,
					-0.09549831,
					0,
					0.88004977,
					0.24494407,
					-0.006903,
					1
				],
				"limbId": -1
			},
			"name": "bind_left_front_toe_ring_end"
		},
		{
			"matrix": [
				0.9999998211860657,
				0,
				7.450580596923828e-9,
				0,
				0,
				0.9999998807907104,
				0,
				0,
				7.450580596923828e-9,
				0,
				0.9999999403953552,
				0,
				-0.142494797706604,
				5.960464477539063e-8,
				-7.450580596923828e-9,
				1
			],
			"extras": {
				"controllerId": 1514349078,
				"inverse": [
					-0.0716715,
					-0.99742824,
					1.2386592e-7,
					-0,
					-0.095252715,
					0.0068446314,
					0.9954296,
					0,
					-0.99286956,
					0.07134392,
					-0.09549833,
					0,
					0.8586283,
					0.26669607,
					-0.00690303,
					1
				],
				"limbId": -1
			},
			"name": "bind_left_front_toe_pinky_end"
		},
		{
			"matrix": [
				1,
				0,
				0,
				0,
				0,
				0.9999998807907104,
				0,
				0,
				0,
				0,
				0.9999998807907104,
				0,
				1.3445841773318534e-8,
				0.1799999475479126,
				-3.5762786865234375e-7,
				1
			],
			"extras": {
				"controllerId": 3421665106,
				"inverse": [
					-1,
					7.469916e-8,
					-4.5417806e-8,
					-0,
					-0,
					0.51951915,
					0.85445875,
					0,
					8.742278e-8,
					0.85445875,
					-0.51951915,
					0,
					-7.528412e-8,
					-1.5276047,
					-0.85487735,
					1
				],
				"limbId": -1
			},
			"name": "bind_neck_b",
			"children": [
				69
			]
		},
		{
			"matrix": [
				1,
				0,
				0,
				0,
				0,
				0.9999998807907104,
				0,
				0,
				0,
				0,
				0.9999998807907104,
				0,
				1.3445848878745892e-8,
				0.1800001859664917,
				5.960464477539063e-8,
				1
			],
			"extras": {
				"controllerId": 3170191300,
				"inverse": [
					-1,
					7.469916e-8,
					-4.5417806e-8,
					-0,
					-0,
					0.51951915,
					0.85445875,
					0,
					8.742278e-8,
					0.85445875,
					-0.51951915,
					0,
					-8.872997e-8,
					-1.7076049,
					-0.8548774,
					1
				],
				"limbId": -1
			},
			"name": "bind_neck_c",
			"children": [
				70
			]
		},
		{
			"matrix": [
				1,
				0,
				0,
				0,
				-7.105427357601002e-15,
				0.5876439809799194,
				-0.8091195821762085,
				0,
				0,
				0.8091195225715637,
				0.5876439213752747,
				0,
				1.3445870195027965e-8,
				0.1799997091293335,
				1.1920928955078125e-7,
				1
			],
			"extras": {
				"controllerId": 790629746,
				"inverse": [
					-1,
					8.064496e-8,
					3.375105e-8,
					-0,
					-0,
					-0.38606703,
					0.9224707,
					0,
					8.742278e-8,
					0.92247075,
					0.386067,
					0,
					-1.0217584e-7,
					-0.41754138,
					-2.0296617,
					1
				],
				"limbId": -1
			},
			"name": "bind_head",
			"children": [
				71,
				72,
				73,
				74,
				75,
				76
			]
		},
		{
			"matrix": [
				0.4656084477901459,
				-0.478385329246521,
				-0.7445509433746338,
				0,
				-0.5640562176704407,
				-0.8087002038955688,
				0.1668669879436493,
				0,
				-0.6819452047348022,
				0.3422739505767822,
				-0.6463738679885864,
				0,
				0.17401081323623657,
				0.032688140869140625,
				0.14762067794799805,
				1
			],
			"extras": {
				"controllerId": 4103459013,
				"inverse": [
					-0.4656085,
					0.56405616,
					0.6819452,
					-0,
					-0.50213766,
					0.4661424,
					-0.72840166,
					0,
					-0.72874296,
					-0.6815805,
					0.066194,
					0,
					1.7554598,
					0.09893614,
					1.3719023,
					1
				],
				"limbId": -1
			},
			"name": "bind_right_ear"
		},
		{
			"matrix": [
				0.4656085669994354,
				0.47838521003723145,
				0.7445508241653442,
				0,
				-0.5640560984611511,
				0.8087002635002136,
				-0.16686683893203735,
				0,
				-0.6819452047348022,
				-0.34227389097213745,
				0.6463739275932312,
				0,
				-0.17401070892810822,
				0.03268557786941528,
				0.14762091636657715,
				1
			],
			"extras": {
				"controllerId": 818923690,
				"inverse": [
					-0.4656085,
					0.56405616,
					0.6819452,
					-0,
					0.50213766,
					-0.4661423,
					0.7284017,
					0,
					0.72874296,
					0.6815805,
					-0.066194035,
					0,
					-1.7554588,
					-0.098934054,
					-1.3719037,
					1
				],
				"limbId": -1
			},
			"name": "bind_left_ear"
		},
		{
			"matrix": [
				1,
				-7.105427357601002e-15,
				0,
				0,
				-7.105427357601002e-15,
				1,
				0,
				0,
				0,
				0,
				0.9999998807907104,
				0,
				6.202540703270643e-10,
				0.05642688274383545,
				-0.11644923686981201,
				1
			],
			"extras": {
				"controllerId": 3542556997,
				"inverse": [
					-1,
					8.064496e-8,
					3.375105e-8,
					-0,
					-0,
					-0.38606703,
					0.9224707,
					0,
					8.742278e-8,
					0.92247075,
					0.386067,
					0,
					-1.0279609e-7,
					-0.47396827,
					-1.9132124,
					1
				],
				"limbId": -1
			},
			"name": "bind_jaw"
		},
		{
			"matrix": [
				-1,
				8.064495915505177e-8,
				3.375104995484435e-8,
				0,
				-2.354347929228029e-16,
				-0.3860670328140259,
				0.9224706888198853,
				0,
				8.74227694680485e-8,
				0.9224706888198853,
				0.3860669732093811,
				0,
				8.064375833782833e-10,
				0.010000050067901611,
				0,
				1
			],
			"extras": {
				"controllerId": 725275650,
				"inverse": [
					1,
					2.3543477e-16,
					-1.9764976e-16,
					-0,
					-2.3543477e-16,
					1,
					3.8857803e-16,
					0,
					1.9764978e-16,
					-3.8857806e-16,
					0.99999994,
					0,
					2.485619e-16,
					-1.7072439,
					-1.1779798,
					1
				],
				"limbId": -1
			},
			"name": "look"
		},
		{
			"matrix": [
				1,
				-7.105427357601002e-15,
				0,
				0,
				-7.105427357601002e-15,
				1,
				0,
				0,
				0,
				0,
				0.9999998807907104,
				0,
				-0.11933476477861404,
				0.307594895362854,
				-0.21413040161132812,
				1
			],
			"extras": {
				"controllerId": 2104083006,
				"inverse": [
					-1,
					8.064496e-8,
					3.375105e-8,
					-0,
					-0,
					-0.38606703,
					0.9224707,
					0,
					8.742278e-8,
					0.92247075,
					0.386067,
					0,
					0.11933466,
					-0.7251363,
					-1.8155313,
					1
				],
				"limbId": -1
			},
			"name": "bind_left_mouth_corner"
		},
		{
			"matrix": [
				1,
				-7.105427357601002e-15,
				0,
				0,
				-7.105427357601002e-15,
				1,
				0,
				0,
				0,
				0,
				0.9999998807907104,
				0,
				0.11933503299951553,
				0.30759286880493164,
				-0.21413493156433105,
				1
			],
			"extras": {
				"controllerId": 1546734734,
				"inverse": [
					-1,
					8.064496e-8,
					3.375105e-8,
					-0,
					-0,
					-0.38606703,
					0.9224707,
					0,
					8.742278e-8,
					0.92247075,
					0.386067,
					0,
					-0.11933514,
					-0.72513425,
					-1.8155267,
					1
				],
				"limbId": -1
			},
			"name": "bind_right_mouth_corner"
		},
		{
			"matrix": [
				-1.3992036862475743e-8,
				0.3201005160808563,
				0.9473835229873657,
				0,
				1,
				2.2999344650997955e-9,
				1.3992035086118904e-8,
				0,
				2.2999344650997955e-9,
				0.9473835229873657,
				-0.32010045647621155,
				0,
				0.0992569625377655,
				-0.11507993936538696,
				0.2796097993850708,
				1
			],
			"extras": {
				"controllerId": 1644319876,
				"inverse": [
					-1.3992037e-8,
					-1,
					-8.5122835e-8,
					-0,
					-0.9473836,
					-1.3992036e-8,
					0.32010046,
					0,
					-0.3201005,
					8.512284e-8,
					-0.9473835,
					0,
					1.4723022,
					-0.23340301,
					0.258184,
					1
				],
				"limbId": -1
			},
			"name": "bind_right_front_shoulder",
			"children": [
				78,
				79
			]
		},
		{
			"matrix": [
				1,
				-1.7763568394002505e-15,
				0,
				0,
				-1.7763568394002505e-15,
				1,
				0,
				0,
				0,
				0,
				0.9999998807907104,
				0,
				0.2633150815963745,
				0,
				7.152557373046875e-7,
				1
			],
			"extras": {
				"controllerId": 1225948302,
				"inverse": [
					-1.3992037e-8,
					-1,
					-8.5122835e-8,
					-0,
					-0.9473836,
					-1.3992036e-8,
					0.32010046,
					0,
					-0.3201005,
					8.512284e-8,
					-0.9473835,
					0,
					1.2089871,
					-0.23340301,
					0.2581833,
					1
				],
				"limbId": -1
			},
			"name": "bind_right_front_up_arm_twist_a"
		},
		{
			"matrix": [
				0.9298418164253235,
				2.0538745815201764e-8,
				-0.36795955896377563,
				0,
				4.4068091398230536e-8,
				0.9999999403953552,
				1.6717893913664739e-7,
				0,
				0.36795955896377563,
				-1.716652491268178e-7,
				0.9298416972160339,
				0,
				0.4930535554885864,
				2.9802322387695312e-8,
				-8.046627044677734e-7,
				1
			],
			"extras": {
				"controllerId": 1671945586,
				"inverse": [
					-2.2273603e-9,
					-0.99999994,
					8.7365976e-8,
					-0,
					-0.9987009,
					-2.2273596e-9,
					-0.05095606,
					0,
					0.050956063,
					-8.7365976e-8,
					-0.99870086,
					0,
					0.8155448,
					-0.23340295,
					0.60039496,
					1
				],
				"limbId": -1
			},
			"name": "bind_right_front_elbow",
			"children": [
				80,
				81
			]
		},
		{
			"matrix": [
				1,
				4.440892098500626e-16,
				0,
				0,
				-1.1102230246251565e-16,
				0.9999998807907104,
				-1.1920926112907182e-7,
				0,
				0,
				1.1920926112907182e-7,
				0.9999998807907104,
				0,
				0.30751240253448486,
				0,
				-8.940696716308594e-7,
				1
			],
			"extras": {
				"controllerId": 310496333,
				"inverse": [
					-2.2273605e-9,
					-0.99999994,
					-3.1843296e-8,
					-0,
					-0.9987009,
					3.8470755e-9,
					-0.05095606,
					0,
					0.050956063,
					3.168843e-8,
					-0.99870086,
					0,
					0.5080324,
					-0.23340301,
					0.60039586,
					1
				],
				"limbId": -1
			},
			"name": "bind_right_front_lo_arm_twist_a"
		},
		{
			"matrix": [
				1,
				2.652100761224574e-12,
				0.000060673803091049194,
				0,
				-2.652100761224574e-12,
				0.9999999403953552,
				2.1316282072803006e-14,
				0,
				-0.000060673803091049194,
				-2.1316282072803006e-14,
				0.9999999403953552,
				0,
				0.5761440992355347,
				0,
				-4.172325134277344e-7,
				1
			],
			"extras": {
				"controllerId": 3127564858,
				"inverse": [
					-2.224711e-9,
					-1,
					8.736613e-8,
					-0,
					-0.998704,
					-2.2247124e-9,
					-0.050895464,
					0,
					0.050895467,
					-8.736614e-8,
					-0.99870396,
					0,
					0.23943712,
					-0.23340297,
					0.6003808,
					1
				],
				"limbId": -1
			},
			"name": "bind_right_front_wrist",
			"children": [
				82
			]
		},
		{
			"matrix": [
				0.05089545622467995,
				-4.365475092527049e-8,
				-0.9987039566040039,
				0,
				4.3654740267129455e-8,
				1,
				-4.148668608650041e-8,
				0,
				0.9987039566040039,
				-4.14866718756457e-8,
				0.05089544877409935,
				0,
				0.18222014605998993,
				-1.4901161193847656e-8,
				-4.76837158203125e-7,
				1
			],
			"extras": {
				"controllerId": 1012796562,
				"inverse": [
					-4.371139e-8,
					-1,
					4.3711385e-8,
					-0,
					1.1182824e-8,
					-4.371139e-8,
					-0.99999994,
					0,
					1,
					-4.371139e-8,
					1.11828244e-8,
					0,
					-0.596691,
					-0.23340297,
					0.08769949,
					1
				],
				"limbId": -1
			},
			"name": "bind_right_front_ball",
			"children": [
				83
			]
		},
		{
			"matrix": [
				0.995429515838623,
				-4.174356860175976e-9,
				-0.09549828618764877,
				0,
				4.174360412889655e-9,
				0.9999999403953552,
				-1.9977663967551962e-10,
				0,
				0.09549830108880997,
				-1.9977930421077872e-10,
				0.995429515838623,
				0,
				0.09443491697311401,
				0,
				0.016159087419509888,
				1
			],
			"extras": {
				"controllerId": 527998823,
				"inverse": [
					-4.3511612e-8,
					-0.99999994,
					3.9537024e-8,
					-0,
					0.0954983,
					-4.351161e-8,
					-0.9954296,
					0,
					0.9954295,
					-3.9537024e-8,
					0.09549831,
					0,
					-0.6947991,
					-0.23340295,
					0.005212091,
					1
				],
				"limbId": -1
			},
			"name": "bind_right_front_toes",
			"children": [
				84,
				85,
				86,
				87
			]
		},
		{
			"matrix": [
				0.9857034087181091,
				-0.16848942637443542,
				2.2351741790771484e-8,
				0,
				0.16848941147327423,
				0.9857034087181091,
				-6.146728992462158e-8,
				0,
				-7.450580596923828e-9,
				6.375140770842336e-8,
				0.9999999403953552,
				0,
				0.0003781914710998535,
				-0.06257101893424988,
				-0.001690894365310669,
				1
			],
			"extras": {
				"controllerId": 2845101973,
				"inverse": [
					0.1684894,
					-0.98570347,
					-2.4214385e-8,
					-0,
					0.094133005,
					0.016090475,
					-0.9954296,
					0,
					0.98119843,
					0.16771932,
					0.09549829,
					0,
					-0.6564554,
					-0.2855197,
					0.006902978,
					1
				],
				"limbId": -1
			},
			"name": "bind_right_front_toe_index",
			"children": [
				88
			]
		},
		{
			"matrix": [
				0.9989385604858398,
				-0.04606045410037041,
				2.2351741790771484e-8,
				0,
				0.04606045410037041,
				0.9989386200904846,
				1.210719347000122e-8,
				0,
				-7.450580596923828e-9,
				-1.1220053330873725e-8,
				0.9999999403953552,
				0,
				0.0003784298896789551,
				-0.02632400393486023,
				-0.001690886914730072,
				1
			],
			"extras": {
				"controllerId": 1774955066,
				"inverse": [
					0.046060413,
					-0.9989387,
					5.075708e-8,
					-0,
					0.095396936,
					0.0043986402,
					-0.9954296,
					0,
					0.9943731,
					0.045849904,
					0.09549829,
					0,
					-0.6849016,
					-0.23887938,
					0.0069029853,
					1
				],
				"limbId": -1
			},
			"name": "bind_right_front_toe_middle",
			"children": [
				89
			]
		},
		{
			"matrix": [
				0.9994898438453674,
				0.03193403035402298,
				1.4901161193847656e-8,
				0,
				-0.03193403780460358,
				0.9994899034500122,
				-7.916241884231567e-8,
				0,
				0,
				7.865257600769837e-8,
				1,
				0,
				0.0003783106803894043,
				0.03387700021266937,
				-0.001690886914730072,
				1
			],
			"extras": {
				"controllerId": 2982017295,
				"inverse": [
					-0.03193408,
					-0.99948996,
					-3.911555e-8,
					-0,
					0.09544959,
					-0.0030496113,
					-0.99542964,
					0,
					0.99492186,
					-0.031788133,
					0.09549831,
					0,
					-0.7033582,
					-0.24494384,
					0.0069029704,
					1
				],
				"limbId": -1
			},
			"name": "bind_right_front_toe_ring",
			"children": [
				90
			]
		},
		{
			"matrix": [
				0.9974281787872314,
				0.07167144864797592,
				1.4901161193847656e-8,
				0,
				-0.07167145609855652,
				0.9974281787872314,
				-6.658956408500671e-8,
				0,
				-7.450580596923828e-9,
				6.514839867577393e-8,
				1,
				0,
				0.0003783106803894043,
				0.08393396437168121,
				-0.0016909092664718628,
				1
			],
			"extras": {
				"controllerId": 3181419025,
				"inverse": [
					-0.0716715,
					-0.99742824,
					-2.5611374e-8,
					-0,
					0.0952527,
					-0.0068444805,
					-0.99542964,
					0,
					0.9928696,
					-0.071343936,
					0.0954983,
					0,
					-0.71613365,
					-0.26669645,
					0.0069029927,
					1
				],
				"limbId": -1
			},
			"name": "bind_right_front_toe_pinky",
			"children": [
				91
			]
		},
		{
			"matrix": [
				1.0000001192092896,
				0,
				-7.450580596923828e-9,
				0,
				0,
				1,
				-1.862645149230957e-9,
				0,
				-7.450580596923828e-9,
				-1.862645149230957e-9,
				0.9999999403953552,
				0,
				0.16803663969039917,
				-6.258487701416016e-7,
				-3.725290298461914e-8,
				1
			],
			"extras": {
				"controllerId": 3890069234,
				"inverse": [
					0.1684894,
					-0.98570347,
					-2.4214385e-8,
					-0,
					0.094133005,
					0.016090475,
					-0.9954296,
					0,
					0.98119843,
					0.16771932,
					0.09549829,
					0,
					-0.82449204,
					-0.2855191,
					0.006903015,
					1
				],
				"limbId": -1
			},
			"name": "bind_right_front_toe_index_end"
		},
		{
			"matrix": [
				0.9999999403953552,
				-3.725290298461914e-9,
				7.450580596923828e-9,
				0,
				-3.725290298461914e-9,
				1.0000001192092896,
				0,
				0,
				7.450580596923828e-9,
				0,
				0.9999999403953552,
				0,
				0.18690967559814453,
				1.4901161193847656e-7,
				-1.043081283569336e-7,
				1
			],
			"extras": {
				"controllerId": 445529409,
				"inverse": [
					0.046060413,
					-0.9989387,
					5.075708e-8,
					-0,
					0.095396936,
					0.0043986402,
					-0.9954296,
					0,
					0.9943731,
					0.045849904,
					0.09549829,
					0,
					-0.8718113,
					-0.23887952,
					0.0069030896,
					1
				],
				"limbId": -1
			},
			"name": "bind_right_front_toe_middle_end"
		},
		{
			"matrix": [
				0.9999999403953552,
				0,
				7.450580596923828e-9,
				0,
				0,
				0.9999999403953552,
				-4.656612873077393e-10,
				0,
				7.450580596923828e-9,
				-4.656612873077393e-10,
				1,
				0,
				0.17669153213500977,
				5.21540641784668e-7,
				1.4901161193847656e-8,
				1
			],
			"extras": {
				"controllerId": 1122771373,
				"inverse": [
					-0.03193408,
					-0.99948996,
					-3.911555e-8,
					-0,
					0.09544959,
					-0.0030496113,
					-0.99542964,
					0,
					0.99492186,
					-0.031788133,
					0.09549831,
					0,
					-0.8800497,
					-0.24494435,
					0.0069029555,
					1
				],
				"limbId": -1
			},
			"name": "bind_right_front_toe_ring_end"
		},
		{
			"matrix": [
				0.9999999403953552,
				0,
				-1.4901161193847656e-8,
				0,
				7.450580596923828e-9,
				0.9999998807907104,
				-2.3888424038887024e-7,
				0,
				2.2351741790771484e-8,
				2.3795291781425476e-7,
				1,
				0,
				0.14249491691589355,
				-7.748603820800781e-7,
				5.21540641784668e-8,
				1
			],
			"extras": {
				"controllerId": 1315001423,
				"inverse": [
					-0.0716715,
					-0.99742824,
					-2.6449564e-7,
					-0,
					0.095252715,
					-0.0068442426,
					-0.99542964,
					0,
					0.9928696,
					-0.07134395,
					0.0954983,
					0,
					-0.8586286,
					-0.26669568,
					0.0069028586,
					1
				],
				"limbId": -1
			},
			"name": "bind_right_front_toe_pinky_end"
		},
		{
			"extras": {
				"name": "bobcat_mesh"
			},
			"name": "bobcat_mesh",
			"skin": 0,
			"mesh": 0
		},
		{
			"children": [
				92
			]
		}
	],
	"scene": 0,
	"scenes": [
		{
			"name": "Root Scene",
			"nodes": [
				0,
				93
			]
		}
	],
	"skins": [
		{
			"inverseBindMatrices": 0,
			"joints": [
				0,
				1,
				2,
				3,
				4,
				5,
				6,
				7,
				8,
				9,
				10,
				11,
				12,
				13,
				14,
				15,
				16,
				17,
				18,
				19,
				20,
				21,
				22,
				23,
				24,
				25,
				26,
				27,
				28,
				29,
				30,
				31,
				32,
				33,
				34,
				35,
				36,
				37,
				38,
				39,
				40,
				41,
				42,
				43,
				44,
				45,
				46,
				47,
				48,
				49,
				50,
				51,
				52,
				53,
				54,
				55,
				56,
				57,
				58,
				59,
				60,
				61,
				62,
				63,
				64,
				65,
				66,
				67,
				68,
				69,
				70,
				71,
				72,
				73,
				74,
				75,
				76,
				77,
				78,
				79,
				80,
				81,
				82,
				83,
				84,
				85,
				86,
				87,
				88,
				89,
				90,
				91
			]
		}
	],
	"textures": [
		{
			"extras": {
				"alpha": false,
				"refId": "objects/characters/npc/natural/bobcat/textures/bobcat_fur_diff.png",
				"source": "objects/characters/npc/natural/bobcat/textures/bobcat_fur_diff.dds"
			},
			"name": "objects/characters/npc/natural/bobcat/textures/bobcat_fur_diff.png",
			"source": 0
		},
		{
			"extras": {
				"alpha": false,
				"refId": "objects/characters/npc/natural/bobcat/textures/bobcat_fur_ddna.png",
				"source": "objects/characters/npc/natural/bobcat/textures/bobcat_fur_ddna.dds"
			},
			"name": "objects/characters/npc/natural/bobcat/textures/bobcat_fur_ddna.png",
			"source": 1
		},
		{
			"name": "objects/characters/npc/natural/bobcat/textures/bobcat_fur_spec.png",
			"source": 2
		},
		{
			"name": "objects/characters/npc/natural/bobcat/textures/bobcat_fur_ddna.dds.a.png",
			"source": 3
		},
		{
			"name": "objects/characters/npc/natural/bobcat/textures/bobcatstrange_mask.png",
			"source": 4
		},
		{
			"name": "objects/characters/npc/natural/bobcat/textures/bobcat_diff.png",
			"source": 5
		},
		{
			"name": "objects/characters/npc/natural/bobcat/textures/bobcat_ddna.png",
			"source": 6
		},
		{
			"name": "objects/characters/npc/natural/bobcat/textures/bobcat_spec.png",
			"source": 7
		},
		{
			"name": "objects/characters/npc/natural/bobcat/textures/bobcat_ddna.a.png",
			"source": 8
		}
	]
}
