<?xml version="1.0" encoding="UTF-8"?>
<svg width="710px" height="818px" viewBox="0 0 710 818" version="1.1" xmlns="http://www.w3.org/2000/svg" xmlns:xlink="http://www.w3.org/1999/xlink">
    <!-- Generator: Sketch 61.2 (89653) - https://sketch.com -->
    <title>gg</title>
    <desc>Created with Sketch.</desc>
    <g id="Page-1" stroke="none" stroke-width="1" fill="none" fill-rule="evenodd">
        <g id="Group" transform="translate(-163.000000, -89.000000)">
            <path d="M711.383503,833 L904.458034,497.999999 L711.441575,163.10064 L325.023007,163.001482 L131.547942,498.100643 L325.022154,833 L711.383503,833 Z" id="L" stroke="#FFFFFF" stroke-width="20" fill="#000000" transform="translate(518.000000, 498.000000) rotate(30.000000) translate(-518.000000, -498.000000) "></path>
            <polygon id="G" fill="#FFFFFF" points="829 329.607398 529 502 529 848 829 675.607398 829 468.007398 679 554.203699 679 623.403699 754 580.305549 754 649.505549 604 735.70185 604 528.10185 829 398.807398"></polygon>
            <polygon id="G" fill="#FFFFFF" points="507 502.529046 207 326.392602 207 672.392602 507 848.529046 507 640.929046 357 552.860824 357 622.060824 432 666.094935 432 735.294935 282 647.226713 282 439.626713 507 571.729046"></polygon>
            <polygon id="Path" fill="#FFFFFF" points="283 270 217 308.756094 517 479 819.142586 309.409514 753 270 518.071293 401.739336"></polygon>
        </g>
    </g>
</svg>